<svg width="400" height="621" viewBox="0 0 538 621" fill="none" xmlns="http://www.w3.org/2000/svg">
<path d="M354.502 334.876C372.073 346.267 372.071 370.271 375.95 396.162C410.679 367.425 390.683 317.311 354.502 334.876Z" fill="url(#paint0_linear)"/>
<path d="M360.247 332.656C373.904 341.509 383.318 356.506 386.333 376.63C413.326 354.294 388.369 319.003 360.247 332.656Z" fill="url(#paint1_linear)"/>
<path d="M213.891 567.298C171.026 600.23 146.754 556.298 181.588 537.977C192.356 547.75 203.124 557.524 213.891 567.298Z" fill="url(#paint2_linear)"/>
<path d="M181.829 312.271C169.529 318.362 158.942 331.736 139.346 346.198C97.2907 386.763 119.723 453.66 143.666 490.878C169.722 537.164 203.418 566.44 241.398 586.176C267.349 597.181 292.738 596.764 316.963 576.674C347.587 549.644 366.947 511.841 375.348 467.897C383.987 429.498 392.273 364.905 359.731 334.573C340.369 329.594 323.582 325.692 310.865 313.991C305.1 307.116 300.45 303.719 288.083 310.251C283.074 314.458 268.904 309.843 271.227 306.181C270.632 304.556 272.802 303.365 277.74 302.607C278.801 300.901 279.22 299.327 278.998 297.886C274.635 298.198 271.911 297.5 280.663 289.734C281.938 286.725 282.57 284.268 278.711 285.675C268.972 288.264 263.193 287.736 259.214 285.791C250.662 284.747 249.707 289.191 249.838 294.417C249.872 298.909 245.647 301.944 239.486 302.359C227.055 303.829 215.878 304.643 207.624 311.946C199.672 315.797 189.01 308.328 181.829 312.271Z" fill="url(#paint3_linear)"/>
<path d="M377.979 403.746C378.227 373.776 371.126 336.153 342.727 336.069C271.31 359.141 211.252 322.952 192.411 326.537C180.889 328.729 160.372 336.968 163.796 332.493C154.17 341.261 147.251 348.149 140.357 355.437C120.845 376.068 118.67 405.685 126.66 436.206C142.609 497.128 189.987 550.929 244.409 579.751C268.447 589.617 289.356 588.656 310.342 572.901C356.693 535.697 377.508 460.878 377.979 403.746V403.746Z" fill="url(#paint4_linear)"/>
<path fill-rule="evenodd" clip-rule="evenodd" d="M302.019 522.714C305.131 532.144 304.415 536.848 302.544 544.264C309.142 533.804 314.936 523.127 319.924 512.237C314.421 520.294 308.433 520.462 302.019 522.714ZM263.304 556.818C266.557 558.522 268.416 565.463 270.358 572.096C274.227 564.631 277.142 556.222 279.1 546.868C274.575 551.465 269.014 554.269 263.304 556.818V556.818ZM237.155 537.669C235.604 545.326 236.137 552.551 237.619 559.585C230.136 555.343 224.469 550.333 220.619 544.555C225.796 543.519 231.084 542.062 237.155 537.669V537.669ZM139.693 449.567C144.041 449.194 149.032 449.243 155.434 450.223C152.483 455.982 150.822 463.694 150.452 473.358C148.004 463.693 144.166 456.149 139.693 449.567V449.567ZM159.71 352.885C161.43 357.243 162.97 361.742 163.269 367.221C166.447 361.331 170.89 355.593 176.598 350.004C170.827 350.274 165.156 351.037 159.71 352.885ZM344.988 360.672C349.017 367.463 352.254 374.132 354.817 381.226C354.768 372.498 355.666 363.289 357.078 354.262C353.526 356.871 348.841 359.523 344.988 360.672ZM295.806 395.34C300.167 400.891 303.168 408.51 305.789 416.707C307.338 408.323 310.645 400.862 314.836 394.217C308.7 395.595 301.838 394.839 295.806 395.34Z" fill="#8B1310"/>
<path d="M166.591 334.453C162.783 330.878 164.002 326.696 167.972 322.046C169.954 319.723 172.789 317.029 175.818 314.159C178.942 311.198 181.476 309.475 186.245 309.125C189.892 308.856 194.732 309.644 202.81 311.59C203.606 311.782 204.626 311.718 205.584 311.342C206.263 311.075 206.864 310.651 207.218 310.058C207.246 310.011 207.833 309.177 207.87 309.136C214.192 302.141 224.31 302.381 233.668 302.603C238.338 302.713 242.763 302.819 245.049 301.907C248.121 300.683 246.634 303.425 247.382 306.653C248.198 310.172 248.155 313.595 248.112 317.058C248.075 320.116 248.037 331.966 248.731 334.447C250.429 334.634 263.571 334.233 265.274 334.505C265.58 334.554 265.887 334.603 266.193 334.651C266.173 333.425 266.166 323.415 266.16 322.156C266.142 318.482 266.124 314.807 265.805 312.906C264.983 308.003 271.011 304.375 274.963 307.393C283.101 313.608 282.163 310.988 289.749 307.105C291.06 306.435 292.429 305.733 293.91 305.012C296.982 303.517 300.332 303.198 303.55 304.085L303.572 304.108C306.523 304.921 309.288 306.722 311.509 309.524C312.963 311.357 314.614 313.076 316.584 314.813C318.682 316.663 321.056 318.476 323.841 320.402C325.852 321.793 328.829 323.778 332.114 325.699C335.298 327.561 338.829 329.397 342.126 330.607C347.11 332.437 346.503 340.558 341.293 341.632C339.393 342.024 337.072 342.616 334.776 343.203C330.837 344.208 326.97 345.195 322.132 345.766C322.341 347.2 323.045 351.963 324.025 369.439C322.638 376.718 319.125 379.909 312.977 379.084C309.268 378.586 304.833 375.784 299.334 370.717C299.301 370.686 298.663 369.988 298.636 369.952C296.298 366.865 294.504 364.461 292.698 362.041C288.432 356.325 284.137 350.569 280.034 345.428C279.883 345.727 279.737 346.019 279.59 346.311C279.02 347.453 278.442 348.609 277.34 350.597C275.31 354.256 273.58 356.592 270.472 357.75C267.254 358.947 264.09 358.32 259.658 355.85L241.6 345.787C241.091 345.504 240.38 345.329 239.657 345.424C239.257 345.477 238.837 345.669 238.461 346.065C236.635 347.994 234.671 349.985 232.433 351.957C230.198 353.928 227.729 355.817 224.923 357.493C224.055 358.011 221.087 358.335 220.13 358.01C217.477 357.11 214.724 356.398 211.816 355.988C208.987 355.588 205.883 355.479 202.4 355.767C199.494 356.007 196.379 353.322 196.167 350.411C195.913 346.909 197.661 344.129 199.407 341.349C199.481 341.232 199.556 341.113 200.067 340.269C200.214 340.024 201.626 338.58 201.867 338.424C202.003 338.335 202.141 338.245 202.277 338.152C196.347 335.051 185.836 335.456 175.326 335.861C173.844 335.918 172.367 335.975 170.709 336.028C169.868 336.054 167.206 335.03 166.591 334.453V334.453Z" fill="url(#paint5_linear)"/>
<path d="M170.529 330.268C168.857 328.699 173.939 323.854 179.778 318.321C184.071 314.253 186.576 313.601 201.482 317.192C204.883 318.011 209.825 316.893 212.145 313.006C219.671 304.678 238.615 310.669 247.163 307.262C258.27 307.808 249.942 323.835 254.366 330.545C259.579 330.585 261.094 332.268 266.308 332.309C258.764 328.13 259.504 308.064 264.746 307.923C277.273 317.489 284.516 315.99 296.43 310.187C299.951 308.473 304.079 309.406 307.009 313.102C310.371 317.342 314.518 320.937 320.578 325.127C324.728 327.997 332.928 333.357 340.146 336.007C333.526 337.372 328.238 339.299 321.094 340.098C317.978 340.447 316.622 341.103 316.938 346.021C317.418 353.474 317.898 360.928 318.377 368.382C316.974 375.75 312.471 375.005 303.226 366.487C296.298 357.341 289.297 347.609 282.204 338.99C281.191 337.759 278.658 337.381 277.081 338.764C274.964 342.441 274.258 344.315 272.322 347.807C269.556 352.794 268.105 353.985 262.448 350.832L244.39 340.77C241.777 339.313 237.346 338.862 234.276 342.105C230.767 345.812 226.832 349.665 221.975 352.565C216.053 350.556 209.587 349.373 201.927 350.006C201.781 347.991 203.582 345.575 204.994 343.239C208.764 340.788 211.818 337.629 215.589 335.179C213.586 328.931 209.562 330.127 205.148 333.168C196.859 328.692 183.34 329.861 170.529 330.268V330.268Z" fill="url(#paint6_linear)"/>
<path d="M127.848 533.181C125.336 530.91 124.176 527.989 124.368 524.417C123.927 483.126 187.474 474.691 252.44 455.564C302.969 440.687 353.26 416.154 382.043 385.204C409.996 355.147 395.006 322.946 358.75 333.032C365.92 327.035 389.528 323.946 398.065 342.555C409.428 367.327 389.19 372.565 402.514 421.77C403.827 426.618 409.165 435.78 401.672 443.81C390.169 458.026 373.543 468.579 353.003 479.214C337.028 487.485 319.779 496.241 298.43 503.027C269.205 513.552 226.25 522.09 197.682 532.845C176.835 540.693 163.64 548.422 169.07 565.395C172.87 555.875 177.261 549.671 183.517 544.847C175.76 553.883 172.476 563.205 170.3 574.065C168.32 572.198 165.76 570.77 164.349 568.408C153.722 550.616 139.946 544.586 127.848 533.181V533.181Z" fill="url(#paint7_linear)"/>
<path d="M163.64 559.72C159.882 554.627 155.364 550.217 150.564 546.122C143.947 540.63 136.859 535.76 130.552 529.889C129.094 528.462 128.568 526.903 128.604 524.877C129.849 492.643 170.302 483.182 195.038 475.777C217.738 469.339 240.67 463.757 263.198 456.713C282.247 450.523 300.667 443.284 318.715 434.581C344.262 421.812 380.551 401.041 394.913 374.814C392.106 391.769 394.3 407.042 398.576 423.462C399.976 427.907 402.263 432.369 400.878 437.117C398.182 444.6 385.327 454.235 379.749 458.328C356.144 475.182 324.95 489.998 297.069 498.998C278.382 505.593 259.104 510.414 239.981 515.543C222.63 520.223 205.193 524.96 188.581 531.887C177.242 536.796 162.102 544.94 163.64 559.72V559.72Z" fill="url(#paint8_linear)"/>
<path fill-rule="evenodd" clip-rule="evenodd" d="M185.846 496.302L193.455 504.034L192.74 494.741C192.67 493.844 193.257 492.811 194.389 492.807C195.522 492.803 196.246 493.566 196.315 494.463L197.357 508L207.049 517.848C207.68 518.49 207.775 519.841 207.035 520.392C206.296 520.944 205.128 521.012 204.497 520.37L197.784 513.55L198.422 521.837C198.492 522.734 197.905 523.767 196.773 523.77C195.64 523.774 194.916 523.012 194.847 522.115L193.882 509.584L183.293 498.824C182.662 498.183 182.553 497.177 183.307 496.28C184.06 495.384 185.214 495.66 185.846 496.302V496.302ZM287.105 493.269L280.063 453.844C279.764 452.169 282.264 451.085 283.28 452.456L308.47 486.428C309.006 487.151 308.954 488.338 308.096 488.94C307.238 489.543 306.114 489.284 305.578 488.561L284.954 460.745L290.647 492.624C290.806 493.51 290.39 494.514 289.193 494.718C287.995 494.922 287.263 494.154 287.105 493.269V493.269ZM311.854 455.662L303.63 459.173L307.183 467.856L311.931 466.023C312.771 465.699 313.91 465.998 314.258 467.051C314.605 468.104 314.065 469.051 313.226 469.374L308.544 471.182L313.28 482.758L321.382 479.92C322.231 479.623 323.183 479.818 323.674 481.019C324.166 482.221 323.418 483.011 322.569 483.308L312.857 486.71C312.053 486.991 310.924 486.483 310.602 485.696L299.635 458.893C299.3 458.073 299.784 456.902 300.596 456.555L310.453 452.347C311.281 451.994 312.391 452.181 312.809 453.298C313.227 454.414 312.682 455.309 311.854 455.662V455.662ZM319.497 450.509L324.839 460.316L332.341 456.835L327.591 448.031C327.164 447.239 326.736 446.447 328.32 445.596C329.903 444.745 330.33 445.537 330.758 446.329L344.342 471.504C344.769 472.297 344.64 473.289 343.613 473.939C342.586 474.59 341.602 473.998 341.175 473.206L334.052 460.005L326.562 463.48L333.502 476.219C333.932 477.01 333.871 477.901 332.78 478.657C331.69 479.414 330.768 478.725 330.338 477.934L316.333 452.224C315.902 451.434 315.472 450.644 317.054 449.786C318.636 448.929 319.066 449.719 319.497 450.509V450.509ZM337.895 443.289L343.993 454.34L344.286 438.688C344.318 437.03 346.765 436.374 347.62 437.793L362.273 462.126C362.737 462.897 363.201 463.668 361.663 464.595C360.124 465.523 359.659 464.752 359.195 463.981L347.758 444.989L347.512 458.1C347.501 458.711 347.489 459.322 346.919 459.641L351.294 467.57C351.729 468.358 351.771 469.312 350.59 470.009C349.409 470.705 348.582 470.084 348.147 469.296L334.747 445.015C334.313 444.227 333.878 443.439 335.451 442.576C337.025 441.714 337.46 442.502 337.895 443.289ZM354.881 432.374L359.976 440.408L366.149 435.246L361.116 427.245C360.637 426.483 360.158 425.721 361.677 424.769C363.196 423.816 363.676 424.578 364.154 425.34L378.953 448.866C379.431 449.628 379.911 450.39 378.391 451.342C376.872 452.294 376.393 451.533 375.914 450.771L368.079 438.315L361.917 443.468L370.31 456.703C370.792 457.463 371.275 458.222 369.757 459.181C368.239 460.14 367.757 459.381 367.275 458.621L358.015 444.022C357.907 443.876 357.821 443.739 357.755 443.611L351.845 434.292C351.363 433.532 350.881 432.773 352.399 431.814C353.917 430.855 354.399 431.614 354.881 432.374V432.374ZM391.173 434.576L386.403 430.434L380.621 436.239L383.825 445.628C384.116 446.48 384.407 447.332 382.71 447.912C381.013 448.491 380.722 447.64 380.432 446.788L376.977 436.665C376.612 436.206 376.522 435.837 376.586 435.518L369.828 415.714C369.287 414.13 371.441 412.682 372.702 413.778L393.528 431.865C394.208 432.455 394.887 433.045 393.709 434.401C392.532 435.757 391.852 435.166 391.173 434.576V434.576ZM383.685 428.073L375.371 420.853L379.328 432.448L383.685 428.073ZM243.648 490.957L245.327 495.484L247.324 488.317C247.824 486.81 250.12 486.755 250.702 488.231L256.885 503.897C257.215 504.734 257.054 505.672 255.871 506.225C254.689 506.778 253.867 506.042 253.536 505.205L248.937 493.424L247.182 500.131C247.164 500.186 247.146 500.24 247.127 500.295L249.564 506.834C249.878 507.677 249.701 508.622 248.512 509.147C247.324 509.672 246.518 508.93 246.204 508.087L240.288 492.21C239.974 491.367 240.019 490.193 241.207 489.668C242.395 489.143 243.334 490.114 243.648 490.957V490.957ZM273.124 499.16L268.799 488.361L267.849 494.205C267.645 495.459 266.132 496.117 265.075 495.409L258.628 491.092L262.876 502.047C263.201 502.886 262.97 503.926 261.851 504.372C260.732 504.819 259.85 504.18 259.524 503.341L253.218 487.079C252.628 485.557 254.535 484.032 255.893 484.941L264.748 490.87L266.286 481.409C266.553 479.766 269.105 479.481 269.725 481.03L276.453 497.827C276.787 498.663 276.548 499.617 275.457 500.164C274.366 500.712 273.458 499.995 273.124 499.16V499.16ZM172.589 503.396L175.144 508.611C177.61 509.353 180.376 506.781 179.249 503.832C178.463 501.777 177.536 501.066 172.589 503.396ZM177.169 512.744L183.463 525.591C186.187 524.891 187.495 524.072 187.804 522.967C188.217 521.497 187.326 519.106 185.781 515.695C184.861 513.665 183.948 512.586 182.714 512.236C181.456 511.878 179.683 512.104 177.169 512.744V512.744ZM168.6 503.434C168.247 502.712 168.583 501.557 169.266 501.129C170.399 500.42 171.709 499.793 173.017 499.356C174.52 498.854 176.07 498.583 177.435 498.688C179.107 498.818 180.526 499.479 181.403 500.879C181.602 501.198 181.764 501.536 181.883 501.893C182.551 503.896 183.052 505.669 182.369 507.636C182.269 507.925 182.144 508.209 181.991 508.491C182.592 508.528 183.157 508.622 183.694 508.774C186.072 509.45 187.658 511.141 189.051 514.216C190.928 518.362 191.973 521.401 191.263 523.934C190.498 526.662 188.002 528.344 182.848 529.429C182.184 529.569 181.157 529.063 180.859 528.454L168.6 503.434ZM203.966 495.995L210.422 512.227C211.156 514.073 212.424 514.956 213.639 515.065C214.092 515.106 214.535 515.046 214.931 514.896C215.311 514.753 215.663 514.515 215.954 514.195C216.726 513.345 217.013 511.877 216.272 509.907L210.084 493.465C209.239 491.218 208.012 490.203 206.852 490.065C206.431 490.015 206.004 490.082 205.603 490.247C205.187 490.419 204.799 490.701 204.472 491.073L204.465 491.075C203.527 492.14 203.139 493.916 203.966 495.996L203.966 495.995ZM200.62 497.317C199.233 493.829 200.027 490.688 201.778 488.699L201.771 488.7C202.462 487.916 203.31 487.308 204.243 486.923C205.191 486.532 206.228 486.376 207.28 486.501C209.666 486.786 212.049 488.503 213.444 492.212L219.632 508.654C220.921 512.081 220.223 514.854 218.622 516.617C217.955 517.35 217.121 517.904 216.198 518.253C215.292 518.597 214.31 518.734 213.329 518.646C210.87 518.425 208.382 516.834 207.076 513.548L200.62 497.317ZM217.705 487.624C218.31 484.703 219.76 482.777 221.52 481.713C222.661 481.024 223.919 480.706 225.162 480.72C226.403 480.733 227.626 481.072 228.698 481.695C230.398 482.684 231.743 484.383 232.217 486.631C232.944 489.181 232.764 491.28 231.923 493.051C231.817 493.274 231.701 493.49 231.575 493.701C231.8 493.77 232.022 493.852 232.242 493.946C234.032 494.716 235.495 496.297 236.454 498.997C236.455 499.001 236.509 499.161 236.51 499.165L238.345 506.558C239.088 509.55 237.931 511.773 235.991 513.146C235.205 513.703 234.303 514.101 233.365 514.336C232.451 514.564 231.481 514.645 230.536 514.571C227.914 514.369 225.488 512.995 224.728 510.351L223.63 506.536C223.382 505.672 223.359 504.247 224.849 503.803C226.339 503.359 226.853 504.683 227.102 505.548L228.2 509.363C228.486 510.358 229.583 510.891 230.801 510.985C231.359 511.028 231.942 510.978 232.5 510.838C233.034 510.705 233.525 510.495 233.922 510.213C234.709 509.656 235.17 508.721 234.848 507.423L233.022 500.068C232.444 498.505 231.686 497.631 230.814 497.256C229.911 496.867 228.751 496.959 227.461 497.345C225.766 497.853 224.506 494.958 226.045 494.062C227.259 493.355 228.192 492.528 228.676 491.509C229.143 490.526 229.215 489.26 228.742 487.609C228.741 487.606 228.711 487.46 228.711 487.457C228.476 486.239 227.773 485.328 226.885 484.811C226.34 484.495 225.732 484.323 225.128 484.316C224.526 484.309 223.921 484.461 223.375 484.791C222.417 485.369 221.608 486.517 221.229 488.348C221.046 489.229 220.076 490.016 219.102 489.749C218.129 489.481 217.523 488.506 217.705 487.624V487.624ZM155.61 515.2L155.621 515.219C153.598 512.018 153.695 508.985 154.879 506.881C155.378 505.993 156.072 505.268 156.89 504.755C157.729 504.231 158.687 503.928 159.69 503.898C161.924 503.831 164.376 505.072 166.147 508.18L175.586 524.741C177.54 528.17 177.556 531.114 176.554 533.086C176.102 533.976 175.45 534.678 174.665 535.158C173.884 535.636 172.976 535.888 172.01 535.883C169.918 535.873 167.568 534.628 165.828 531.8L155.61 515.2ZM158.657 513.301L158.668 513.32L168.886 529.92C169.898 531.565 171.064 532.288 172.017 532.293C172.304 532.294 172.571 532.221 172.796 532.083C173.019 531.947 173.21 531.737 173.348 531.464C173.859 530.458 173.738 528.756 172.464 526.52L163.025 509.958C162.011 508.18 160.812 507.463 159.8 507.494C159.432 507.505 159.088 507.611 158.795 507.794C158.482 507.99 158.211 508.276 158.011 508.633C157.409 509.703 157.439 511.373 158.657 513.301V513.301ZM145.757 516.439L142.535 512.87C141.476 511.697 140.32 511.406 139.357 511.684C138.904 511.815 138.485 512.058 138.13 512.381C137.748 512.73 137.431 513.168 137.211 513.665C136.613 515.013 136.721 516.812 138.106 518.52L156.451 541.159C157.274 542.175 158.351 542.463 159.313 542.246C159.761 542.144 160.193 541.936 160.573 541.642C160.959 541.343 161.285 540.961 161.513 540.52C162.095 539.397 162.063 537.823 160.866 536.086L159.092 533.511C158.582 532.77 158.627 531.829 159.548 531.014C160.469 530.199 161.537 530.739 162.047 531.48L163.822 534.055C165.888 537.054 165.837 539.975 164.697 542.176C164.22 543.098 163.552 543.885 162.768 544.491C161.978 545.104 161.061 545.541 160.095 545.76C157.891 546.259 155.461 545.642 153.657 543.415L135.311 520.776C132.958 517.872 132.835 514.679 133.926 512.218C134.354 511.252 134.971 510.399 135.715 509.721C136.485 509.018 137.386 508.496 138.355 508.215C140.553 507.579 143.068 508.11 145.198 510.468L148.421 514.038C149.024 514.705 149.162 515.812 148.295 516.574C147.428 517.337 146.36 517.107 145.757 516.439V516.439ZM281.593 492.602C282.205 492.476 282.816 492.614 283.307 492.938C283.795 493.26 284.159 493.765 284.285 494.375C284.411 494.989 284.277 495.6 283.956 496.087C283.636 496.574 283.13 496.939 282.514 497.067C281.897 497.194 281.288 497.058 280.801 496.738C280.314 496.417 279.949 495.909 279.822 495.295C279.696 494.685 279.831 494.077 280.152 493.588C280.474 493.097 280.98 492.728 281.593 492.602V492.602Z" fill="#FFEC00"/>
<path fill-rule="evenodd" clip-rule="evenodd" d="M189.199 496.298L196.809 504.03L196.093 494.737C196.024 493.84 196.611 492.807 197.743 492.804C198.875 492.8 199.6 493.562 199.669 494.459L200.711 507.996L210.403 517.844C211.034 518.486 211.128 519.837 210.389 520.388C209.65 520.94 208.482 521.008 207.85 520.367L201.138 513.546L201.776 521.833C201.845 522.73 201.259 523.763 200.127 523.767C198.994 523.771 198.27 523.008 198.2 522.111L197.236 509.581L186.647 498.82C186.016 498.179 185.907 497.173 186.661 496.276C187.414 495.38 188.568 495.657 189.199 496.298V496.298ZM290.458 493.265L283.417 453.841C283.118 452.165 285.618 451.082 286.634 452.452L311.824 486.425C312.36 487.147 312.308 488.334 311.45 488.937C310.592 489.539 309.468 489.28 308.932 488.557L288.308 460.741L294.001 492.621C294.159 493.506 293.744 494.511 292.546 494.714C291.349 494.918 290.617 494.151 290.458 493.265V493.265ZM315.208 455.658L306.984 459.17L310.537 467.853L315.285 466.019C316.125 465.695 317.263 465.994 317.611 467.047C317.959 468.1 317.419 469.047 316.579 469.371L311.898 471.179L316.634 482.754L324.736 479.916C325.585 479.619 326.536 479.814 327.028 481.016C327.52 482.217 326.772 483.007 325.923 483.305L316.211 486.706C315.407 486.987 314.278 486.48 313.956 485.692L302.989 458.889C302.654 458.069 303.137 456.899 303.95 456.552L313.807 452.343C314.634 451.99 315.745 452.177 316.163 453.294C316.581 454.411 316.036 455.305 315.208 455.658ZM322.85 450.506L328.193 460.313L335.695 456.831L330.945 448.027C330.517 447.235 330.09 446.443 331.674 445.592C333.257 444.742 333.684 445.534 334.112 446.326L347.695 471.501C348.123 472.293 347.993 473.285 346.967 473.936C345.94 474.586 344.956 473.994 344.529 473.202L337.406 460.001L329.916 463.476L336.855 476.216C337.286 477.006 337.225 477.897 336.134 478.654C335.044 479.41 334.122 478.721 333.691 477.931L319.686 452.221C319.256 451.431 318.826 450.64 320.408 449.783C321.99 448.925 322.42 449.715 322.85 450.506ZM341.249 443.286L347.347 454.337L347.64 438.685C347.671 437.026 350.119 436.37 350.973 437.789L365.627 462.122C366.091 462.893 366.555 463.664 365.016 464.592C363.478 465.519 363.013 464.748 362.549 463.977L351.112 444.985L350.866 458.096C350.855 458.708 350.842 459.319 350.273 459.638L354.648 467.566C355.083 468.354 355.125 469.309 353.944 470.005C352.763 470.701 351.935 470.08 351.501 469.292L338.101 445.011C337.666 444.223 337.232 443.436 338.805 442.573C340.379 441.71 340.814 442.498 341.249 443.286ZM358.234 432.371L363.33 440.404L369.503 435.243L364.469 427.241C363.991 426.479 363.511 425.718 365.031 424.765C366.55 423.813 367.029 424.575 367.508 425.336L382.306 448.862C382.785 449.624 383.264 450.386 381.745 451.338C380.226 452.291 379.746 451.529 379.268 450.767L371.433 438.312L365.27 443.464L373.664 456.699C374.146 457.459 374.628 458.219 373.11 459.178C371.592 460.137 371.11 459.377 370.628 458.617L361.369 444.018C361.261 443.872 361.175 443.736 361.109 443.608L355.199 434.289C354.717 433.529 354.234 432.769 355.752 431.81C357.27 430.851 357.752 431.611 358.234 432.371V432.371ZM394.527 434.573L389.757 430.43L383.975 436.236L387.179 445.625C387.47 446.477 387.76 447.328 386.063 447.908C384.366 448.488 384.076 447.636 383.785 446.784L380.331 436.662C379.966 436.202 379.876 435.833 379.94 435.515L373.182 415.71C372.641 414.126 374.794 412.679 376.056 413.775L396.882 431.861C397.562 432.451 398.241 433.042 397.063 434.397C395.885 435.753 395.206 435.163 394.527 434.573V434.573ZM387.039 428.07L378.725 420.849L382.681 432.444L387.039 428.07ZM247.002 490.954L248.681 495.481L250.677 488.313C251.178 486.807 253.473 486.752 254.055 488.227L260.239 503.893C260.569 504.73 260.408 505.669 259.225 506.221C258.042 506.774 257.22 506.038 256.89 505.201L252.291 493.42L250.536 500.128C250.518 500.182 250.5 500.236 250.481 500.291L252.918 506.83C253.232 507.674 253.054 508.618 251.866 509.143C250.678 509.668 249.872 508.926 249.558 508.083L243.642 492.206C243.328 491.363 243.373 490.189 244.561 489.664C245.749 489.139 246.688 490.111 247.002 490.954V490.954ZM276.477 499.156L272.153 488.358L271.202 494.202C270.999 495.455 269.486 496.114 268.428 495.405L261.982 491.088L266.23 502.043C266.555 502.882 266.324 503.922 265.204 504.369C264.085 504.815 263.203 504.177 262.878 503.338L256.572 487.075C255.982 485.553 257.889 484.028 259.247 484.937L268.101 490.866L269.64 481.405C269.907 479.763 272.459 479.477 273.079 481.026L279.807 497.823C280.141 498.659 279.902 499.613 278.811 500.161C277.72 500.709 276.812 499.992 276.477 499.156V499.156ZM175.942 503.392L178.498 508.608C180.964 509.349 183.73 506.777 182.603 503.828C181.817 501.773 180.89 501.062 175.942 503.392ZM180.523 512.741L186.817 525.587C189.541 524.888 190.848 524.068 191.158 522.963C191.57 521.493 190.68 519.102 189.134 515.691C188.215 513.661 187.301 512.583 186.067 512.232C184.81 511.875 183.036 512.1 180.523 512.741V512.741ZM171.954 503.431C171.6 502.709 171.936 501.553 172.62 501.125C173.753 500.416 175.062 499.789 176.371 499.352C177.874 498.851 179.424 498.579 180.789 498.685C182.46 498.814 183.88 499.475 184.757 500.875C184.956 501.194 185.118 501.533 185.237 501.889C185.905 503.893 186.405 505.665 185.723 507.632C185.622 507.921 185.498 508.205 185.345 508.487C185.946 508.525 186.511 508.618 187.048 508.77C189.426 509.446 191.012 511.137 192.405 514.212C194.282 518.358 195.327 521.397 194.617 523.93C193.852 526.658 191.356 528.341 186.201 529.425C185.538 529.565 184.511 529.06 184.213 528.45L171.954 503.431ZM207.32 495.992L213.775 512.223C214.51 514.07 215.777 514.952 216.993 515.062C217.446 515.102 217.888 515.043 218.285 514.893C218.665 514.749 219.016 514.512 219.308 514.191C220.08 513.342 220.367 511.873 219.626 509.903L213.438 493.461C212.592 491.214 211.366 490.199 210.206 490.061C209.785 490.011 209.358 490.078 208.957 490.243C208.541 490.415 208.153 490.697 207.825 491.069L207.818 491.071C206.881 492.136 206.493 493.912 207.32 495.992L207.32 495.992ZM203.974 497.313C202.587 493.825 203.381 490.684 205.132 488.696L205.125 488.697C205.816 487.912 206.664 487.304 207.597 486.919C208.545 486.528 209.582 486.372 210.634 486.497C213.02 486.782 215.402 488.499 216.798 492.208L222.986 508.65C224.275 512.077 223.577 514.851 221.975 516.613C221.309 517.347 220.475 517.9 219.552 518.249C218.645 518.593 217.664 518.731 216.683 518.643C214.224 518.421 211.736 516.83 210.429 513.545L203.974 497.313ZM221.059 487.621C221.663 484.7 223.113 482.773 224.874 481.709C226.014 481.02 227.272 480.702 228.516 480.716C229.757 480.73 230.98 481.068 232.051 481.691C233.752 482.68 235.097 484.379 235.571 486.628C236.298 489.177 236.118 491.277 235.277 493.047C235.17 493.271 235.055 493.487 234.929 493.697C235.154 493.766 235.376 493.848 235.596 493.942C237.386 494.713 238.849 496.293 239.808 498.994C239.809 498.998 239.863 499.158 239.864 499.161L241.699 506.554C242.442 509.547 241.285 511.769 239.345 513.143C238.559 513.7 237.656 514.098 236.718 514.332C235.805 514.561 234.835 514.641 233.89 514.568C231.267 514.365 228.842 512.991 228.081 510.347L226.984 506.533C226.735 505.668 226.713 504.243 228.203 503.799C229.693 503.355 230.207 504.679 230.456 505.544L231.553 509.359C231.84 510.355 232.936 510.887 234.155 510.981C234.713 511.024 235.296 510.974 235.854 510.835C236.388 510.701 236.878 510.491 237.276 510.21C238.063 509.652 238.524 508.717 238.202 507.419L236.376 500.064C235.798 498.502 235.04 497.627 234.168 497.252C233.265 496.864 232.105 496.956 230.815 497.342C229.12 497.849 227.859 494.955 229.398 494.059C230.613 493.351 231.546 492.524 232.03 491.505C232.497 490.522 232.568 489.257 232.096 487.605C232.095 487.602 232.065 487.457 232.064 487.454C231.83 486.235 231.127 485.324 230.238 484.808C229.694 484.491 229.086 484.319 228.482 484.312C227.88 484.305 227.274 484.458 226.729 484.787C225.771 485.366 224.961 486.513 224.583 488.344C224.4 489.225 223.43 490.012 222.456 489.745C221.483 489.477 220.877 488.502 221.059 487.621V487.621ZM158.964 515.196L158.975 515.216C156.952 512.014 157.049 508.981 158.232 506.877C158.732 505.989 159.426 505.264 160.244 504.752C161.083 504.227 162.041 503.924 163.044 503.894C165.277 503.828 167.73 505.068 169.501 508.176L178.94 524.738C180.894 528.166 180.909 531.11 179.908 533.083C179.456 533.972 178.804 534.674 178.019 535.154C177.237 535.633 176.329 535.884 175.364 535.88C173.272 535.869 170.922 534.624 169.182 531.796L158.964 515.196ZM162.011 513.297L162.022 513.317L172.24 529.917C173.252 531.561 174.418 532.284 175.37 532.289C175.658 532.29 175.924 532.217 176.15 532.079C176.373 531.943 176.563 531.734 176.702 531.461C177.213 530.454 177.092 528.753 175.817 526.516L166.378 509.955C165.365 508.176 164.166 507.46 163.154 507.49C162.786 507.501 162.442 507.607 162.149 507.79C161.836 507.986 161.565 508.273 161.365 508.629C160.763 509.699 160.792 511.369 162.011 513.297V513.297ZM149.111 516.435L145.888 512.866C144.829 511.693 143.674 511.402 142.711 511.681C142.258 511.812 141.839 512.054 141.484 512.378C141.102 512.726 140.785 513.164 140.565 513.662C139.967 515.009 140.075 516.808 141.459 518.516L159.805 541.155C160.628 542.171 161.705 542.46 162.666 542.242C163.115 542.141 163.547 541.932 163.926 541.638C164.313 541.339 164.639 540.957 164.867 540.517C165.448 539.394 165.417 537.819 164.22 536.082L162.446 533.508C161.935 532.767 161.981 531.825 162.902 531.01C163.823 530.195 164.891 530.736 165.401 531.477L167.175 534.051C169.242 537.05 169.191 539.971 168.051 542.172C167.574 543.094 166.906 543.881 166.122 544.488C165.331 545.1 164.415 545.537 163.448 545.756C161.245 546.255 158.815 545.638 157.01 543.411L138.665 520.772C136.312 517.868 136.189 514.676 137.28 512.214C137.708 511.248 138.325 510.395 139.068 509.717C139.839 509.014 140.74 508.492 141.709 508.212C143.907 507.576 146.422 508.106 148.552 510.465L151.775 514.034C152.378 514.702 152.516 515.808 151.649 516.571C150.782 517.333 149.714 517.103 149.111 516.435V516.435ZM284.947 492.598C285.559 492.472 286.17 492.61 286.66 492.934C287.148 493.256 287.513 493.761 287.638 494.371C287.765 494.985 287.63 495.596 287.31 496.084C286.99 496.57 286.484 496.936 285.867 497.063C285.25 497.19 284.642 497.054 284.155 496.734C283.668 496.414 283.303 495.906 283.176 495.291C283.05 494.681 283.185 494.074 283.506 493.585C283.828 493.093 284.334 492.725 284.947 492.598V492.598Z" fill="#D88D00"/>
<path fill-rule="evenodd" clip-rule="evenodd" d="M187.191 495.629L194.801 503.361L194.086 494.068C194.016 493.171 194.603 492.138 195.735 492.134C196.868 492.13 197.592 492.893 197.661 493.79L198.703 507.327L208.395 517.175C209.026 517.817 209.12 519.168 208.381 519.719C207.642 520.271 206.474 520.339 205.843 519.697L199.13 512.877L199.768 521.164C199.837 522.061 199.251 523.094 198.119 523.097C196.986 523.101 196.262 522.339 196.193 521.442L195.228 508.911L184.639 498.151C184.008 497.51 183.899 496.504 184.653 495.607C185.406 494.71 186.56 494.988 187.191 495.629V495.629ZM288.45 492.596L281.409 453.171C281.11 451.496 283.61 450.412 284.626 451.783L309.816 485.755C310.352 486.478 310.3 487.665 309.442 488.267C308.584 488.87 307.46 488.611 306.924 487.888L286.3 460.072L291.993 491.951C292.152 492.837 291.736 493.841 290.539 494.045C289.341 494.249 288.609 493.481 288.45 492.596V492.596ZM313.2 454.989L304.976 458.5L308.529 467.183L313.277 465.35C314.117 465.026 315.256 465.325 315.603 466.378C315.951 467.43 315.411 468.377 314.572 468.701L309.89 470.509L314.626 482.085L322.728 479.247C323.577 478.95 324.529 479.145 325.02 480.346C325.512 481.548 324.764 482.338 323.915 482.635L314.203 486.037C313.399 486.318 312.27 485.81 311.948 485.023L300.981 458.22C300.646 457.4 301.129 456.229 301.942 455.882L311.799 451.674C312.626 451.321 313.737 451.508 314.155 452.625C314.573 453.741 314.028 454.636 313.2 454.989V454.989ZM320.843 449.836L326.185 459.643L333.687 456.162L328.937 447.358C328.509 446.566 328.082 445.774 329.666 444.923C331.249 444.072 331.676 444.864 332.104 445.656L345.688 470.832C346.115 471.624 345.985 472.616 344.959 473.266C343.932 473.916 342.948 473.325 342.521 472.533L335.398 459.332L327.908 462.807L334.848 475.546C335.278 476.336 335.217 477.228 334.126 477.984C333.036 478.741 332.114 478.052 331.684 477.262L317.679 451.552C317.248 450.761 316.818 449.971 318.4 449.113C319.982 448.256 320.412 449.046 320.843 449.836V449.836ZM339.241 442.616L345.339 453.667L345.632 438.015C345.664 436.357 348.111 435.701 348.966 437.12L363.619 461.453C364.083 462.224 364.547 462.995 363.009 463.922C361.47 464.85 361.005 464.079 360.541 463.308L349.104 444.316L348.858 457.427C348.847 458.038 348.835 458.65 348.265 458.969L352.64 466.897C353.075 467.685 353.117 468.639 351.936 469.336C350.755 470.032 349.928 469.411 349.493 468.623L336.093 444.342C335.658 443.554 335.224 442.766 336.797 441.904C338.371 441.041 338.806 441.828 339.241 442.616V442.616ZM356.227 431.701L361.322 439.735L367.495 434.573L362.462 426.572C361.983 425.81 361.503 425.048 363.023 424.096C364.542 423.143 365.021 423.905 365.5 424.667L380.298 448.193C380.777 448.955 381.257 449.717 379.737 450.669C378.218 451.621 377.739 450.86 377.26 450.098L369.425 437.642L363.262 442.795L371.656 456.03C372.138 456.79 372.62 457.55 371.102 458.509C369.584 459.468 369.102 458.708 368.62 457.948L359.361 443.349C359.253 443.203 359.167 443.066 359.101 442.939L353.191 433.619C352.709 432.859 352.227 432.1 353.745 431.141C355.263 430.182 355.745 430.941 356.227 431.701V431.701ZM392.519 433.903L387.749 429.761L381.967 435.566L385.171 444.955C385.462 445.807 385.752 446.659 384.055 447.239C382.359 447.818 382.068 446.967 381.777 446.115L378.323 435.992C377.958 435.533 377.868 435.164 377.932 434.845L371.174 415.041C370.633 413.457 372.786 412.009 374.048 413.105L394.874 431.192C395.554 431.782 396.233 432.372 395.055 433.728C393.878 435.084 393.198 434.494 392.519 433.903V433.903ZM385.031 427.401L376.717 420.18L380.674 431.775L385.031 427.401ZM244.994 490.284L246.673 494.811L248.67 487.644C249.17 486.137 251.466 486.082 252.048 487.558L258.231 503.224C258.561 504.061 258.4 504.999 257.217 505.552C256.035 506.105 255.213 505.369 254.882 504.532L250.283 492.751L248.528 499.458C248.51 499.513 248.492 499.567 248.473 499.622L250.91 506.161C251.224 507.004 251.047 507.949 249.858 508.474C248.67 508.999 247.864 508.257 247.55 507.414L241.634 491.537C241.32 490.694 241.365 489.52 242.553 488.995C243.741 488.47 244.68 489.441 244.994 490.284V490.284ZM274.47 498.487L270.145 487.688L269.195 493.532C268.991 494.786 267.478 495.444 266.421 494.736L259.974 490.419L264.222 501.374C264.547 502.213 264.316 503.253 263.197 503.699C262.077 504.146 261.196 503.507 260.87 502.668L254.564 486.406C253.974 484.884 255.881 483.359 257.239 484.268L266.094 490.197L267.632 480.736C267.899 479.093 270.451 478.808 271.071 480.357L277.799 497.154C278.133 497.99 277.894 498.943 276.803 499.491C275.712 500.039 274.804 499.322 274.47 498.487V498.487ZM173.935 502.723L176.49 507.938C178.956 508.679 181.722 506.108 180.595 503.159C179.809 501.104 178.882 500.393 173.935 502.723ZM178.515 512.071L184.809 524.918C187.533 524.218 188.84 523.399 189.15 522.294C189.562 520.824 188.672 518.433 187.127 515.021C186.207 512.992 185.294 511.913 184.06 511.563C182.802 511.205 181.029 511.431 178.515 512.071V512.071ZM169.946 502.761C169.593 502.04 169.928 500.884 170.612 500.456C171.745 499.747 173.055 499.12 174.363 498.683C175.866 498.181 177.416 497.91 178.781 498.015C180.452 498.145 181.872 498.806 182.749 500.206C182.948 500.525 183.11 500.863 183.229 501.22C183.897 503.223 184.398 504.995 183.715 506.963C183.615 507.252 183.49 507.536 183.337 507.818C183.938 507.855 184.503 507.949 185.04 508.101C187.418 508.777 189.004 510.468 190.397 513.543C192.274 517.689 193.319 520.728 192.609 523.261C191.844 525.989 189.348 527.671 184.194 528.756C183.53 528.896 182.503 528.391 182.205 527.781L169.946 502.761ZM205.312 495.323L211.768 511.554C212.502 513.4 213.77 514.283 214.985 514.392C215.438 514.433 215.88 514.373 216.277 514.223C216.657 514.08 217.009 513.842 217.3 513.522C218.072 512.672 218.359 511.204 217.618 509.234L211.43 492.792C210.584 490.545 209.358 489.53 208.198 489.392C207.777 489.342 207.35 489.409 206.949 489.574C206.533 489.746 206.145 490.028 205.817 490.4L205.81 490.401C204.873 491.466 204.485 493.242 205.312 495.322L205.312 495.323ZM201.966 496.644C200.579 493.156 201.373 490.015 203.124 488.026L203.117 488.027C203.808 487.242 204.656 486.635 205.589 486.25C206.537 485.859 207.574 485.703 208.626 485.828C211.012 486.113 213.394 487.83 214.79 491.539L220.978 507.981C222.267 511.408 221.569 514.181 219.967 515.944C219.301 516.677 218.467 517.231 217.544 517.58C216.637 517.923 215.656 518.061 214.675 517.973C212.216 517.752 209.728 516.161 208.422 512.875L201.966 496.644ZM219.051 486.951C219.656 484.03 221.105 482.104 222.866 481.04C224.006 480.351 225.265 480.033 226.508 480.047C227.749 480.061 228.972 480.399 230.043 481.022C231.744 482.011 233.089 483.71 233.563 485.958C234.29 488.508 234.11 490.607 233.269 492.378C233.162 492.601 233.047 492.818 232.921 493.028C233.146 493.097 233.368 493.179 233.588 493.273C235.378 494.044 236.841 495.624 237.8 498.324C237.801 498.328 237.855 498.488 237.856 498.492L239.691 505.885C240.434 508.877 239.277 511.1 237.337 512.474C236.551 513.03 235.649 513.428 234.711 513.663C233.797 513.891 232.827 513.972 231.882 513.898C229.259 513.696 226.834 512.322 226.074 509.678L224.976 505.863C224.727 504.999 224.705 503.574 226.195 503.13C227.685 502.686 228.199 504.01 228.448 504.875L229.545 508.69C229.832 509.685 230.928 510.218 232.147 510.312C232.705 510.355 233.288 510.305 233.846 510.165C234.38 510.032 234.871 509.822 235.268 509.54C236.055 508.983 236.516 508.048 236.194 506.75L234.368 499.395C233.79 497.833 233.032 496.958 232.16 496.583C231.257 496.194 230.097 496.286 228.807 496.672C227.112 497.18 225.851 494.286 227.39 493.389C228.605 492.682 229.538 491.855 230.022 490.836C230.489 489.853 230.561 488.587 230.088 486.936C230.087 486.933 230.057 486.787 230.057 486.784C229.822 485.566 229.119 484.655 228.231 484.138C227.686 483.822 227.078 483.65 226.474 483.643C225.872 483.636 225.266 483.789 224.721 484.118C223.763 484.696 222.953 485.844 222.575 487.675C222.392 488.556 221.422 489.343 220.448 489.076C219.475 488.808 218.869 487.833 219.051 486.951V486.951ZM156.956 514.527L156.967 514.546C154.944 511.345 155.041 508.312 156.225 506.208C156.724 505.32 157.418 504.595 158.236 504.082C159.075 503.557 160.033 503.255 161.036 503.225C163.269 503.158 165.722 504.399 167.493 507.507L176.932 524.068C178.886 527.497 178.901 530.441 177.9 532.413C177.448 533.303 176.796 534.004 176.011 534.485C175.229 534.963 174.322 535.215 173.356 535.21C171.264 535.2 168.914 533.955 167.174 531.127L156.956 514.527ZM160.003 512.628L160.014 512.647L170.232 529.247C171.244 530.892 172.41 531.615 173.363 531.62C173.65 531.621 173.917 531.548 174.142 531.41C174.365 531.274 174.555 531.064 174.694 530.791C175.205 529.785 175.084 528.083 173.81 525.847L164.37 509.285C163.357 507.507 162.158 506.79 161.146 506.821C160.778 506.832 160.434 506.938 160.141 507.121C159.828 507.317 159.557 507.603 159.357 507.96C158.755 509.03 158.784 510.7 160.003 512.628V512.628ZM147.103 515.766L143.88 512.197C142.822 511.024 141.666 510.733 140.703 511.011C140.25 511.142 139.831 511.385 139.476 511.708C139.094 512.057 138.777 512.495 138.557 512.992C137.959 514.34 138.067 516.139 139.451 517.847L157.797 540.486C158.62 541.502 159.697 541.79 160.658 541.573C161.107 541.471 161.539 541.263 161.918 540.969C162.305 540.67 162.631 540.288 162.859 539.847C163.441 538.724 163.409 537.15 162.212 535.413L160.438 532.838C159.927 532.097 159.973 531.156 160.894 530.341C161.815 529.525 162.883 530.066 163.393 530.807L165.168 533.382C167.234 536.381 167.183 539.302 166.043 541.503C165.566 542.425 164.898 543.212 164.114 543.818C163.323 544.431 162.407 544.868 161.44 545.087C159.237 545.586 156.807 544.969 155.002 542.742L136.657 520.103C134.304 517.199 134.181 514.006 135.272 511.545C135.7 510.579 136.317 509.726 137.06 509.048C137.831 508.345 138.732 507.823 139.701 507.542C141.899 506.906 144.414 507.437 146.544 509.795L149.767 513.365C150.37 514.032 150.508 515.139 149.641 515.901C148.774 516.664 147.706 516.434 147.103 515.766V515.766ZM282.939 491.929C283.551 491.803 284.162 491.941 284.653 492.265C285.14 492.587 285.505 493.092 285.63 493.702C285.757 494.316 285.622 494.927 285.302 495.414C284.982 495.901 284.476 496.267 283.859 496.394C283.243 496.521 282.634 496.385 282.147 496.065C281.66 495.744 281.295 495.236 281.168 494.622C281.042 494.012 281.177 493.404 281.498 492.915C281.82 492.424 282.326 492.055 282.939 491.929V491.929Z" fill="#8B1310"/>
<path fill-rule="evenodd" clip-rule="evenodd" d="M151.295 395.927C151.317 389.836 152.478 387.207 156.1 387.219C159.474 387.231 160.864 390.034 160.848 394.479C160.834 398.677 158.603 400.974 156.546 400.966L153.171 400.955L153.134 411.572L155.192 411.579C159.719 411.595 161.439 413.824 161.42 419.338C161.397 425.922 159.91 427.811 156.206 427.798C153.078 427.787 151.192 425.887 151.214 419.303L138.127 419.257C138.075 434.484 147.938 438.401 156.745 438.431C168.021 438.47 175.612 432.968 175.653 421.281C175.69 410.663 171.419 408.179 165.418 405.936L165.253 405.935C171.271 403.322 173.67 399.627 173.696 392.301C173.725 383.988 167.413 376.641 156.136 376.602C145.93 376.566 138.251 383.618 138.208 395.882L151.295 395.927ZM197.814 378.063L184.769 437.116L198.926 437.165L200.778 425.319L211.642 425.356L213.741 437.216L227.733 437.265L214.851 378.122L197.814 378.063ZM202.214 414.706L206.008 388.709L206.09 388.71L209.786 414.732L202.214 414.706ZM256.374 376.949C242.957 376.903 237.088 384.208 237.056 393.508L236.963 420.094C236.922 431.864 242.907 438.73 256.076 438.776C269.411 438.822 275.278 431.997 275.319 420.227L275.411 393.724C275.443 384.506 269.789 376.996 256.374 376.949ZM256.253 387.814C258.64 387.822 261.186 389.312 261.175 392.687L261.071 422.647C261.059 426.186 258.501 427.906 256.114 427.897C253.645 427.888 251.182 426.152 251.194 422.612L251.298 392.653C251.31 389.278 253.784 387.805 256.253 387.814V387.814Z" fill="#8B1310"/>
<path d="M157.026 387.725C159.638 388.275 160.734 390.927 160.72 394.878C160.706 399.075 158.475 401.372 156.417 401.365L153.044 401.353L153.013 409.988C155.21 410.105 156.675 410.824 157.554 412.291C160.236 413.075 161.308 415.38 161.293 419.736C161.27 426.32 159.783 428.209 156.079 428.197C154.384 428.191 153.053 427.63 152.194 426.072C150.098 425.636 148.762 423.91 148.47 419.692L138 419.656C137.976 426.659 140.049 431.269 143.152 434.209C146.4 436.118 150.262 436.809 153.941 436.822C165.216 436.861 172.808 431.359 172.849 419.672C172.869 413.763 171.554 410.374 169.352 408.144C168.127 407.449 166.761 406.884 165.29 406.333L165.126 406.334C165.484 406.179 165.828 406.019 166.16 405.856C165.071 405.285 163.881 404.8 162.613 404.326L162.449 404.326C168.467 401.713 170.867 398.017 170.891 390.691C170.906 386.461 169.277 382.481 166.188 379.586C163.48 377.975 160.067 377.014 156.009 377C146.372 376.967 138.988 383.255 138.16 394.282L148.49 394.318C148.512 388.227 149.673 385.597 153.296 385.61C155.047 385.616 156.263 386.375 157.026 387.725V387.725ZM185.083 435.517L196.122 435.555L197.973 423.71L208.838 423.746L209.192 425.746L211.515 425.754L213.26 435.614L224.93 435.655L212.482 378.513L197.687 378.462L185.083 435.517ZM199.409 413.097L203.204 387.099H203.285L204.71 397.13L205.881 389.107H205.962L209.658 415.13L202.086 415.105L202.377 413.107L199.409 413.097ZM241.736 434.524C244.675 436.238 248.502 437.149 253.271 437.165C266.606 437.213 272.474 430.388 272.514 418.617L272.607 392.115C272.623 387.413 271.159 383.158 267.942 380.109C265.012 378.38 261.148 377.365 256.245 377.348C242.83 377.301 236.96 384.605 236.927 393.906L236.837 420.492C236.816 426.56 238.395 431.326 241.736 434.524V434.524ZM253.448 386.204C255.085 386.21 256.797 386.913 257.707 388.442C259.516 388.975 261.057 390.459 261.047 393.085L260.944 423.045C260.931 426.584 258.374 428.304 255.987 428.296C254.386 428.291 252.787 427.559 251.864 426.08C249.962 425.522 248.379 423.842 248.389 421.002L248.494 391.043C248.505 387.669 250.979 386.195 253.448 386.204V386.204Z" fill="url(#paint9_linear)" stroke="#FFEC00" stroke-width="0.216"/>
<path d="M298.498 398.032C302.859 403.583 305.859 411.202 308.481 419.399C310.029 411.015 313.336 403.553 317.527 396.909C311.392 398.287 304.53 397.531 298.498 398.032Z" fill="url(#paint10_linear)"/>
<path d="M347.68 363.363C351.709 370.155 354.946 376.824 357.509 383.918C357.459 375.19 358.358 365.981 359.77 356.954C356.218 359.563 351.532 362.215 347.68 363.363V363.363Z" fill="url(#paint11_linear)"/>
<path d="M162.402 355.577C164.122 359.935 165.662 364.434 165.961 369.913C169.139 364.023 173.582 358.285 179.29 352.695C173.518 352.966 167.848 353.729 162.402 355.577Z" fill="url(#paint12_linear)"/>
<path d="M142.385 452.258C146.733 451.886 151.724 451.935 158.126 452.915C155.175 458.674 153.513 466.385 153.144 476.049C150.696 466.384 146.857 458.841 142.385 452.258Z" fill="url(#paint13_linear)"/>
<path d="M239.846 540.361C238.296 548.018 238.829 555.243 240.311 562.277C232.828 558.035 227.16 553.025 223.311 547.247C228.488 546.211 233.776 544.754 239.846 540.361V540.361Z" fill="url(#paint14_linear)"/>
<path d="M265.996 559.51C269.249 561.214 271.108 568.155 273.05 574.787C276.919 567.323 279.833 558.914 281.791 549.56C277.267 554.157 271.706 556.961 265.996 559.51V559.51Z" fill="url(#paint15_linear)"/>
<path d="M304.71 525.405C307.823 534.836 307.106 539.54 305.236 546.956C311.834 536.495 317.628 525.819 322.616 514.929C317.113 522.986 311.125 523.153 304.71 525.405Z" fill="url(#paint16_linear)"/>
<path d="M297.825 394.667C302.186 400.218 305.187 407.837 307.808 416.034C309.357 407.65 312.663 400.189 316.854 393.544C310.719 394.923 303.857 394.167 297.825 394.667Z" fill="url(#paint17_linear)"/>
<path d="M347.007 359.999C351.036 366.79 354.273 373.459 356.836 380.553C356.786 371.825 357.685 362.616 359.097 353.589C355.545 356.198 350.859 358.85 347.007 359.999Z" fill="url(#paint18_linear)"/>
<path d="M161.729 352.212C163.449 356.57 164.989 361.069 165.288 366.548C168.466 360.659 172.909 354.92 178.617 349.331C172.845 349.601 167.175 350.364 161.729 352.212V352.212Z" fill="url(#paint19_linear)"/>
<path d="M141.712 448.894C146.06 448.521 151.051 448.57 157.453 449.55C154.502 455.309 152.84 463.021 152.471 472.685C150.023 463.02 146.184 455.476 141.712 448.894V448.894Z" fill="url(#paint20_linear)"/>
<path d="M239.174 536.996C237.623 544.653 238.156 551.878 239.638 558.912C232.155 554.67 226.487 549.66 222.638 543.882C227.815 542.847 233.103 541.389 239.174 536.996V536.996Z" fill="url(#paint21_linear)"/>
<path d="M265.323 556.146C268.576 557.849 270.435 564.79 272.377 571.423C276.246 563.958 279.16 555.549 281.118 546.195C276.594 550.792 271.033 553.596 265.323 556.146Z" fill="url(#paint22_linear)"/>
<path d="M304.037 522.041C307.15 531.471 306.433 536.175 304.563 543.591C311.161 533.13 316.955 522.454 321.943 511.565C316.44 519.621 310.452 519.789 304.037 522.041V522.041Z" fill="url(#paint23_linear)"/>
<path d="M256.903 289.273C251.739 288.7 256.903 299.314 250.305 302.469C250.305 303.521 250.305 304.573 250.305 305.625C251.644 305.433 252.983 305.242 254.321 305.051C256.329 313.657 251.739 320.829 255.182 330.869C256.138 329.434 258.91 329.912 265.222 332.303C259.771 324.94 258.91 316.812 262.64 307.92C263.118 306.294 263.596 304.668 264.075 303.043C266.848 301.322 270.003 300.748 273.541 301.322C273.541 300.652 273.541 299.983 273.541 299.314C271.15 298.644 268.76 298.357 266.369 298.453C267.326 294.437 273.158 293.863 275.262 289.847C268.951 290.038 261.78 292.525 256.903 289.273Z" fill="url(#paint24_linear)"/>
<defs>
<linearGradient id="paint0_linear" x1="249.626" y1="415.996" x2="231.729" y2="478.411" gradientUnits="userSpaceOnUse">
<stop stop-color="#FCB900"/>
<stop offset="1" stop-color="#FFEC00"/>
</linearGradient>
<linearGradient id="paint1_linear" x1="38.355" y1="-485.601" x2="75.4118" y2="-514.553" gradientUnits="userSpaceOnUse">
<stop stop-color="#FCB900"/>
<stop offset="1" stop-color="#FFEC00"/>
</linearGradient>
<linearGradient id="paint2_linear" x1="-345.447" y1="443.498" x2="-379.214" y2="467.142" gradientUnits="userSpaceOnUse">
<stop stop-color="#FCB900"/>
<stop offset="1" stop-color="#FFEC00"/>
</linearGradient>
<linearGradient id="paint3_linear" x1="167.636" y1="-257.282" x2="420.032" y2="-434.012" gradientUnits="userSpaceOnUse">
<stop stop-color="#FCB900"/>
<stop offset="1" stop-color="#FFEC00"/>
</linearGradient>
<linearGradient id="paint4_linear" x1="197.498" y1="-286.146" x2="410.374" y2="-435.204" gradientUnits="userSpaceOnUse">
<stop stop-color="#B70814"/>
<stop offset="1" stop-color="#E30016"/>
</linearGradient>
<linearGradient id="paint5_linear" x1="-146.832" y1="309.992" x2="-209.614" y2="355.605" gradientUnits="userSpaceOnUse">
<stop stop-color="#FCB900"/>
<stop offset="1" stop-color="#FFEC00"/>
</linearGradient>
<linearGradient id="paint6_linear" x1="154.446" y1="-314.467" x2="208.649" y2="-352.42" gradientUnits="userSpaceOnUse">
<stop stop-color="#006828"/>
<stop offset="1" stop-color="#4AAC26"/>
</linearGradient>
<linearGradient id="paint7_linear" x1="-248.681" y1="247.011" x2="-473.104" y2="346.93" gradientUnits="userSpaceOnUse">
<stop stop-color="#FCB900"/>
<stop offset="1" stop-color="#FFEC00"/>
</linearGradient>
<linearGradient id="paint8_linear" x1="233.643" y1="-319.133" x2="385.109" y2="-425.191" gradientUnits="userSpaceOnUse">
<stop stop-color="#FCB900"/>
<stop offset="1" stop-color="#FFEC00"/>
</linearGradient>
<linearGradient id="paint9_linear" x1="197.158" y1="-351.633" x2="243.247" y2="-390.307" gradientUnits="userSpaceOnUse">
<stop stop-color="#FCB900"/>
<stop offset="1" stop-color="#FFEC00"/>
</linearGradient>
<linearGradient id="paint10_linear" x1="154.295" y1="-470.976" x2="172.717" y2="-483.876" gradientUnits="userSpaceOnUse">
<stop stop-color="#FCB900"/>
<stop offset="1" stop-color="#FFEC00"/>
</linearGradient>
<linearGradient id="paint11_linear" x1="93.3557" y1="-488.346" x2="115.444" y2="-503.813" gradientUnits="userSpaceOnUse">
<stop stop-color="#FCB900"/>
<stop offset="1" stop-color="#FFEC00"/>
</linearGradient>
<linearGradient id="paint12_linear" x1="196.139" y1="-334.134" x2="210.242" y2="-344.009" gradientUnits="userSpaceOnUse">
<stop stop-color="#FCB900"/>
<stop offset="1" stop-color="#FFEC00"/>
</linearGradient>
<linearGradient id="paint13_linear" x1="289.001" y1="-374.72" x2="308.665" y2="-388.489" gradientUnits="userSpaceOnUse">
<stop stop-color="#FCB900"/>
<stop offset="1" stop-color="#FFEC00"/>
</linearGradient>
<linearGradient id="paint14_linear" x1="314.929" y1="-491.669" x2="332.881" y2="-504.239" gradientUnits="userSpaceOnUse">
<stop stop-color="#FCB900"/>
<stop offset="1" stop-color="#FFEC00"/>
</linearGradient>
<linearGradient id="paint15_linear" x1="297.981" y1="-531.91" x2="318.646" y2="-546.38" gradientUnits="userSpaceOnUse">
<stop stop-color="#FCB900"/>
<stop offset="1" stop-color="#FFEC00"/>
</linearGradient>
<linearGradient id="paint16_linear" x1="247.408" y1="-543.757" x2="273.643" y2="-562.127" gradientUnits="userSpaceOnUse">
<stop stop-color="#FCB900"/>
<stop offset="1" stop-color="#FFEC00"/>
</linearGradient>
<linearGradient id="paint17_linear" x1="-252.545" y1="423.412" x2="-273.397" y2="431.837" gradientUnits="userSpaceOnUse">
<stop stop-color="#FCB900"/>
<stop offset="1" stop-color="#FFEC00"/>
</linearGradient>
<linearGradient id="paint18_linear" x1="-197.074" y1="454.045" x2="-222.074" y2="464.146" gradientUnits="userSpaceOnUse">
<stop stop-color="#FCB900"/>
<stop offset="1" stop-color="#FFEC00"/>
</linearGradient>
<linearGradient id="paint19_linear" x1="-262.533" y1="280.663" x2="-278.496" y2="287.113" gradientUnits="userSpaceOnUse">
<stop stop-color="#FCB900"/>
<stop offset="1" stop-color="#FFEC00"/>
</linearGradient>
<linearGradient id="paint20_linear" x1="-362.145" y1="299.32" x2="-384.403" y2="308.313" gradientUnits="userSpaceOnUse">
<stop stop-color="#FCB900"/>
<stop offset="1" stop-color="#FFEC00"/>
</linearGradient>
<linearGradient id="paint21_linear" x1="-413.717" y1="407.438" x2="-434.037" y2="415.647" gradientUnits="userSpaceOnUse">
<stop stop-color="#FCB900"/>
<stop offset="1" stop-color="#FFEC00"/>
</linearGradient>
<linearGradient id="paint22_linear" x1="-406.255" y1="450.461" x2="-429.646" y2="459.911" gradientUnits="userSpaceOnUse">
<stop stop-color="#FCB900"/>
<stop offset="1" stop-color="#FFEC00"/>
</linearGradient>
<linearGradient id="paint23_linear" x1="-359.644" y1="473.383" x2="-389.339" y2="485.381" gradientUnits="userSpaceOnUse">
<stop stop-color="#FCB900"/>
<stop offset="1" stop-color="#FFEC00"/>
</linearGradient>
<linearGradient id="paint24_linear" x1="229.554" y1="305.973" x2="226.551" y2="348.92" gradientUnits="userSpaceOnUse">
<stop stop-color="#FCB900"/>
<stop offset="1" stop-color="#FFEC00"/>
</linearGradient>
</defs>
</svg>
