<svg width="16" height="17" viewBox="0 0 16 17" fill="none" xmlns="http://www.w3.org/2000/svg">
<path d="M13.0569 3.5681C14.0015 4.13428 14.0013 5.3274 14.2099 6.61433C16.0768 5.18597 15.0019 2.69503 13.0569 3.5681Z" fill="url(#paint0_linear)"/>
<path d="M13.3657 3.45774C14.0999 3.89781 14.6059 4.6432 14.768 5.64349C16.2191 4.53328 14.8775 2.77913 13.3657 3.45774Z" fill="url(#paint1_linear)"/>
<path d="M5.49805 15.1206C3.19375 16.7575 1.88898 14.5739 3.76156 13.6632C4.34039 14.149 4.91922 14.6348 5.49805 15.1206Z" fill="url(#paint2_linear)"/>
<path d="M3.77449 2.44453C3.11329 2.74728 2.54416 3.41201 1.49074 4.13086C-0.770017 6.14715 0.435884 9.47225 1.72295 11.3222C3.12366 13.6228 4.93501 15.078 6.9767 16.059C8.37176 16.606 9.73659 16.5852 11.0388 15.5867C12.6851 14.2431 13.7258 12.3641 14.1774 10.1799C14.6418 8.27128 15.0872 5.06067 13.3379 3.55301C12.2971 3.30556 11.3946 3.1116 10.711 2.53C10.4011 2.18829 10.1512 2.01942 9.48636 2.34413C9.21709 2.55322 8.45533 2.32384 8.58019 2.14181C8.5482 2.06103 8.6649 2.00182 8.93034 1.96416C8.98735 1.87935 9.00988 1.80112 8.99793 1.7295C8.76344 1.74502 8.61701 1.71031 9.08746 1.32433C9.15599 1.17475 9.18999 1.0526 8.9825 1.12256C8.45902 1.25127 8.14833 1.22502 7.93444 1.12833C7.4747 1.07645 7.42338 1.2973 7.43042 1.55708C7.43223 1.78037 7.2051 1.93121 6.87393 1.95186C6.20567 2.02493 5.60486 2.06536 5.16115 2.42834C4.73363 2.61977 4.16051 2.24852 3.77449 2.44453Z" fill="url(#paint3_linear)"/>
<path d="M14.3189 6.99126C14.3322 5.50165 13.9505 3.63158 12.4239 3.62739C8.5847 4.77419 5.35619 2.97542 4.34336 3.1536C3.72398 3.26256 2.62107 3.6721 2.80511 3.44963C2.28769 3.88545 1.9157 4.22784 1.54515 4.59009C0.496245 5.61554 0.379324 7.08766 0.808845 8.60472C1.6662 11.6329 4.21309 14.307 7.13859 15.7396C8.4308 16.23 9.55483 16.1822 10.6829 15.3991C13.1746 13.5499 14.2936 9.83103 14.3189 6.99126V6.99126Z" fill="url(#paint4_linear)"/>
<path fill-rule="evenodd" clip-rule="evenodd" d="M10.2356 12.9046C10.4029 13.3733 10.3644 13.6071 10.2638 13.9758C10.6185 13.4558 10.93 12.9251 11.1981 12.3839C10.9023 12.7843 10.5804 12.7926 10.2356 12.9046ZM8.15443 14.5998C8.3293 14.6844 8.42923 15.0294 8.53361 15.3591C8.74158 14.9881 8.89828 14.5701 9.00353 14.1052C8.76031 14.3337 8.46135 14.473 8.15443 14.5998V14.5998ZM6.74872 13.6479C6.66534 14.0285 6.69401 14.3876 6.77369 14.7373C6.3714 14.5264 6.06675 14.2774 5.85982 13.9902C6.13811 13.9387 6.42239 13.8663 6.74872 13.6479V13.6479ZM1.50952 9.2688C1.74324 9.25027 2.01155 9.25272 2.35569 9.30144C2.19706 9.58767 2.10774 9.97098 2.08787 10.4513C1.95629 9.97094 1.74993 9.59597 1.50952 9.2688V9.2688ZM2.58556 4.46322C2.67802 4.67986 2.7608 4.90348 2.77689 5.17581C2.94773 4.88306 3.18655 4.59784 3.49341 4.32001C3.18314 4.33345 2.87833 4.3714 2.58556 4.46322ZM12.5455 4.85026C12.7621 5.18784 12.9361 5.51931 13.0739 5.87193C13.0712 5.43811 13.1195 4.98037 13.1954 4.53167C13.0044 4.66138 12.7526 4.79317 12.5455 4.85026ZM9.90161 6.57348C10.1361 6.84937 10.2973 7.22808 10.4383 7.6355C10.5215 7.21877 10.6993 6.84792 10.9246 6.51766C10.5947 6.58616 10.2259 6.54858 9.90161 6.57348Z" fill="#8B1310"/>
<path d="M2.95528 3.54707C2.75057 3.3694 2.81613 3.16153 3.0295 2.93039C3.13607 2.81494 3.28848 2.68101 3.45128 2.53836C3.61925 2.39118 3.75545 2.30556 4.0118 2.28813C4.20785 2.27479 4.46803 2.31393 4.90227 2.41067C4.94507 2.42019 4.99991 2.41701 5.05139 2.39832C5.08793 2.38507 5.12021 2.36402 5.13924 2.33454C5.14076 2.33217 5.17233 2.29071 5.17431 2.28868C5.51417 1.941 6.05808 1.95294 6.5611 1.96397C6.81218 1.96946 7.05 1.97469 7.1729 1.92939C7.33805 1.86853 7.25814 2.00484 7.29835 2.16527C7.34219 2.34019 7.33991 2.51033 7.33759 2.68244C7.33557 2.83446 7.33354 3.42344 7.37087 3.54677C7.46213 3.55605 8.1686 3.53612 8.26012 3.54964C8.27659 3.55208 8.29308 3.55453 8.30954 3.55694C8.30846 3.49596 8.30809 2.99846 8.30777 2.93584C8.30682 2.75324 8.30585 2.57058 8.28871 2.47607C8.24449 2.23239 8.56855 2.05207 8.78099 2.20207C9.21844 2.51097 9.16804 2.38075 9.57586 2.18775C9.6463 2.15442 9.71988 2.11957 9.79953 2.08371C9.96464 2.00938 10.1447 1.99357 10.3177 2.03763L10.3189 2.03876C10.4775 2.07917 10.6262 2.16871 10.7456 2.30799C10.8237 2.39911 10.9125 2.48452 11.0184 2.57088C11.1312 2.66281 11.2588 2.75294 11.4085 2.84867C11.5166 2.9178 11.6766 3.01647 11.8532 3.11196C12.0244 3.2045 12.2142 3.29575 12.3914 3.35591C12.6594 3.44687 12.6267 3.85054 12.3467 3.90392C12.2445 3.92339 12.1198 3.95284 11.9963 3.98198C11.7846 4.03198 11.5767 4.08103 11.3166 4.10941C11.3279 4.18065 11.3657 4.41739 11.4184 5.28608C11.3439 5.64786 11.155 5.80649 10.8245 5.76546C10.6251 5.74069 10.3867 5.60142 10.0911 5.34957C10.0893 5.34804 10.055 5.31333 10.0536 5.31154C9.9279 5.15814 9.83146 5.03864 9.73435 4.91833C9.50503 4.63421 9.27415 4.34813 9.0536 4.09262C9.04549 4.10745 9.03761 4.12195 9.02974 4.1365C8.99907 4.19324 8.96799 4.2507 8.90875 4.34951C8.79965 4.53141 8.70667 4.64749 8.53956 4.70504C8.36659 4.76455 8.19649 4.73337 7.95822 4.61061L6.98753 4.11046C6.96016 4.09635 6.92192 4.08767 6.88308 4.09241C6.86154 4.09503 6.83897 4.10455 6.81879 4.12426C6.72063 4.22014 6.61502 4.31912 6.49474 4.41714C6.37457 4.51511 6.24183 4.60897 6.09101 4.69227C6.04435 4.71804 5.88478 4.73411 5.83338 4.718C5.69072 4.67325 5.54274 4.63784 5.38641 4.61746C5.23435 4.59761 5.06747 4.59215 4.88025 4.60647C4.72406 4.61841 4.55658 4.48496 4.54521 4.3403C4.53153 4.16622 4.62548 4.02803 4.71938 3.88986C4.72336 3.88402 4.72736 3.87813 4.75481 3.83616C4.76276 3.82398 4.83865 3.75223 4.85157 3.74446C4.85893 3.74004 4.86631 3.73554 4.87364 3.73096C4.55487 3.57682 3.98984 3.59692 3.42485 3.61706C3.34518 3.61988 3.26578 3.62274 3.17663 3.62535C3.13142 3.62667 2.98836 3.57578 2.95528 3.54707V3.54707Z" fill="url(#paint5_linear)"/>
<path d="M3.16701 3.33904C3.07715 3.26105 3.35034 3.02026 3.6642 2.74524C3.89499 2.54304 4.02965 2.51062 4.83096 2.68913C5.01378 2.72984 5.27943 2.67423 5.40418 2.48104C5.80875 2.06712 6.8271 2.36491 7.28664 2.19556C7.88371 2.22266 7.43602 3.01929 7.67381 3.35282C7.95408 3.35483 8.03549 3.43847 8.31578 3.44048C7.91025 3.23278 7.95002 2.23541 8.23182 2.22839C8.90521 2.70389 9.29458 2.62935 9.93505 2.34094C10.1243 2.25573 10.3462 2.30209 10.5038 2.48582C10.6845 2.69656 10.9074 2.87525 11.2332 3.08353C11.4563 3.22617 11.897 3.49258 12.2851 3.62431C11.9292 3.69216 11.645 3.78795 11.2609 3.82767C11.0934 3.84499 11.0205 3.8776 11.0375 4.12204C11.0633 4.49252 11.0891 4.86302 11.1149 5.23351C11.0394 5.59972 10.7973 5.56269 10.3004 5.1393C9.92794 4.68474 9.55158 4.20101 9.1703 3.77258C9.11586 3.71142 8.97968 3.69261 8.89493 3.76136C8.78109 3.94411 8.74315 4.03727 8.63906 4.21081C8.4904 4.4587 8.41238 4.5179 8.10828 4.3612L7.13757 3.86105C6.99707 3.78865 6.7589 3.76623 6.59388 3.92742C6.40523 4.11169 6.19367 4.30317 5.93262 4.44734C5.61427 4.34749 5.26667 4.28866 4.8549 4.32015C4.84702 4.21999 4.94385 4.09988 5.01974 3.98378C5.22242 3.86197 5.38659 3.70495 5.58929 3.58314C5.48162 3.27261 5.2653 3.33204 5.02804 3.48321C4.58242 3.26071 3.8557 3.31883 3.16701 3.33904V3.33904Z" fill="url(#paint6_linear)"/>
<path d="M0.872753 13.4249C0.737711 13.312 0.675348 13.1668 0.68567 12.9892C0.661974 10.9369 4.07804 10.5176 7.57039 9.56689C10.2867 8.82744 12.9901 7.60804 14.5374 6.06967C16.0401 4.57565 15.2343 2.97513 13.2853 3.47643C13.6707 3.17836 14.9398 3.02484 15.3987 3.94979C16.0096 5.18107 14.9216 5.44145 15.6379 7.88716C15.7084 8.12816 15.9954 8.58352 15.5926 8.98265C14.9742 9.68929 14.0805 10.2138 12.9763 10.7424C12.1176 11.1535 11.1903 11.5888 10.0427 11.926C8.47161 12.4492 6.16251 12.8736 4.62676 13.4082C3.50609 13.7983 2.79682 14.1824 3.08869 15.0261C3.29298 14.5529 3.52904 14.2445 3.86533 14.0047C3.44833 14.4538 3.2718 14.9172 3.15481 15.457C3.04839 15.3642 2.91075 15.2932 2.83491 15.1758C2.26362 14.2914 1.52306 13.9917 0.872753 13.4249V13.4249Z" fill="url(#paint7_linear)"/>
<path d="M2.79685 14.744C2.59483 14.4908 2.35195 14.2717 2.09391 14.0681C1.73822 13.7951 1.35716 13.553 1.01814 13.2612C0.939775 13.1903 0.911472 13.1128 0.913424 13.0121C0.980313 11.4099 3.15497 10.9396 4.4847 10.5716C5.70493 10.2516 6.93771 9.97412 8.14873 9.624C9.17275 9.31633 10.1629 8.95654 11.1331 8.52395C12.5064 7.88923 14.4572 6.85684 15.2293 5.55319C15.0784 6.39594 15.1963 7.15509 15.4262 7.97126C15.5015 8.19221 15.6244 8.41401 15.5499 8.65001C15.405 9.02194 14.714 9.50083 14.4141 9.70427C13.1452 10.542 11.4683 11.2785 9.96953 11.7258C8.96494 12.0536 7.92866 12.2932 6.90064 12.5482C5.96791 12.7808 5.03058 13.0162 4.13759 13.3605C3.52802 13.6046 2.71414 14.0093 2.79685 14.744V14.744Z" fill="url(#paint8_linear)"/>
<path fill-rule="evenodd" clip-rule="evenodd" d="M3.99044 11.5918L4.39951 11.9761L4.36104 11.5142C4.35732 11.4696 4.38885 11.4183 4.44972 11.4181C4.51059 11.4179 4.54954 11.4558 4.55326 11.5004L4.60927 12.1732L5.13027 12.6627C5.16421 12.6946 5.16927 12.7618 5.12953 12.7892C5.0898 12.8166 5.02699 12.82 4.99306 12.7881L4.63224 12.4491L4.66653 12.861C4.67025 12.9056 4.63872 12.9569 4.57785 12.9571C4.51698 12.9573 4.47803 12.9194 4.47431 12.8748L4.42247 12.252L3.85323 11.7171C3.8193 11.6853 3.81346 11.6353 3.85397 11.5907C3.89447 11.5461 3.95651 11.5599 3.99044 11.5918V11.5918ZM9.43378 11.441L9.05526 9.48142C9.03916 9.39813 9.17359 9.34429 9.22821 9.4124L10.5823 11.101C10.6111 11.1369 10.6084 11.1959 10.5622 11.2259C10.5161 11.2558 10.4557 11.2429 10.4269 11.207L9.31816 9.8244L9.62424 11.409C9.63274 11.453 9.61042 11.5029 9.54603 11.5131C9.48163 11.5232 9.44229 11.485 9.43378 11.441V11.441ZM10.7642 9.57176L10.3221 9.7463L10.5131 10.1779L10.7684 10.0868C10.8135 10.0707 10.8747 10.0855 10.8934 10.1378C10.9121 10.1902 10.8831 10.2372 10.838 10.2533L10.5863 10.3432L10.8409 10.9186L11.2764 10.7775C11.3221 10.7627 11.3732 10.7724 11.3997 10.8321C11.4261 10.8919 11.3859 10.9311 11.3402 10.9459L10.8181 11.115C10.7749 11.129 10.7142 11.1037 10.6969 11.0646L10.1074 9.73235C10.0894 9.6916 10.1154 9.63341 10.1591 9.61616L10.6889 9.40699C10.7334 9.38943 10.7931 9.39875 10.8156 9.45425C10.838 9.50975 10.8087 9.5542 10.7642 9.57176V9.57176ZM11.1751 9.31565L11.4622 9.8031L11.8656 9.63007L11.6102 9.19245C11.5872 9.15309 11.5643 9.11372 11.6494 9.07144C11.7345 9.02915 11.7575 9.06852 11.7804 9.10789L12.5107 10.3592C12.5336 10.3986 12.5267 10.4479 12.4715 10.4802C12.4163 10.5126 12.3634 10.4832 12.3404 10.4438L11.9575 9.78764L11.5549 9.96037L11.9279 10.5936C11.9511 10.6328 11.9478 10.6772 11.8892 10.7147C11.8306 10.7523 11.781 10.7181 11.7578 10.6788L11.005 9.40091C10.9818 9.36162 10.9587 9.32235 11.0438 9.27972C11.1288 9.23709 11.1519 9.27637 11.1751 9.31565V9.31565ZM12.1641 8.95678L12.4919 9.50607L12.5077 8.72809C12.5094 8.64564 12.6409 8.61305 12.6869 8.68359L13.4746 9.89305C13.4995 9.93137 13.5245 9.9697 13.4418 10.0158C13.3591 10.0619 13.3341 10.0236 13.3091 9.98525L12.6943 9.04124L12.6811 9.69293C12.6805 9.72333 12.6798 9.75371 12.6492 9.76956L12.8844 10.1637C12.9078 10.2028 12.91 10.2502 12.8466 10.2849C12.7831 10.3195 12.7386 10.2886 12.7152 10.2494L11.9949 9.04256C11.9715 9.0034 11.9482 8.96423 12.0327 8.92135C12.1173 8.87846 12.1407 8.91762 12.1641 8.95678ZM13.0772 8.41425L13.3511 8.81357L13.6829 8.55701L13.4124 8.15929C13.3866 8.12143 13.3609 8.08355 13.4425 8.03622C13.5242 7.98888 13.55 8.02676 13.5757 8.06462L14.3712 9.23398C14.397 9.27184 14.4227 9.30971 14.3411 9.35705C14.2594 9.40438 14.2336 9.36651 14.2079 9.32865L13.7867 8.70954L13.4554 8.96566L13.9066 9.62349C13.9326 9.66126 13.9585 9.69903 13.8769 9.7467C13.7953 9.79437 13.7694 9.7566 13.7434 9.71882L13.2457 8.99319C13.2399 8.98592 13.2353 8.97915 13.2317 8.97279L12.914 8.50959C12.8881 8.47181 12.8622 8.43404 12.9438 8.38638C13.0254 8.33871 13.0513 8.37648 13.0772 8.41425V8.41425ZM15.0281 8.52371L14.7717 8.31781L14.4609 8.60636L14.6332 9.07304C14.6488 9.11538 14.6644 9.15772 14.5732 9.18653C14.482 9.21535 14.4663 9.17301 14.4507 9.13068L14.265 8.62754C14.2454 8.60468 14.2406 8.58635 14.244 8.57052L13.8807 7.58614C13.8516 7.50741 13.9674 7.43546 14.0352 7.48994L15.1548 8.38894C15.1913 8.41827 15.2278 8.4476 15.1645 8.51498C15.1012 8.58237 15.0647 8.55304 15.0281 8.52371V8.52371ZM14.6256 8.20047L14.1787 7.84158L14.3914 8.41793L14.6256 8.20047ZM7.09772 11.3261L7.18799 11.5511L7.2953 11.1949C7.32221 11.12 7.4456 11.1173 7.47689 11.1906L7.80928 11.9693C7.82704 12.0109 7.81837 12.0575 7.75479 12.085C7.69121 12.1125 7.64703 12.0759 7.62927 12.0343L7.38202 11.4487L7.2877 11.7821C7.28672 11.7848 7.28575 11.7875 7.28475 11.7902L7.41574 12.1153C7.43261 12.1572 7.42307 12.2041 7.35919 12.2302C7.29531 12.2563 7.25198 12.2194 7.2351 12.1775L6.91709 11.3884C6.90021 11.3465 6.90263 11.2881 6.9665 11.262C7.03037 11.2359 7.08084 11.2842 7.09772 11.3261V11.3261ZM8.68222 11.7338L8.44972 11.1971L8.39865 11.4876C8.3877 11.5499 8.30638 11.5826 8.24953 11.5474L7.90297 11.3328L8.13133 11.8773C8.14882 11.919 8.13638 11.9707 8.07622 11.9929C8.01606 12.0151 7.96865 11.9834 7.95116 11.9417L7.61216 11.1333C7.58045 11.0577 7.68297 10.9819 7.75595 11.0271L8.23196 11.3218L8.31464 10.8515C8.329 10.7699 8.46619 10.7557 8.49954 10.8327L8.86119 11.6676C8.87916 11.7091 8.86632 11.7565 8.80767 11.7838C8.74901 11.811 8.70019 11.7753 8.68222 11.7338V11.7338ZM3.27779 11.9444L3.41515 12.2036C3.54774 12.2405 3.69643 12.1126 3.63582 11.966C3.59358 11.8639 3.54373 11.8286 3.27779 11.9444ZM3.52403 12.409L3.86239 13.0476C4.00878 13.0128 4.07909 12.9721 4.09574 12.9172C4.1179 12.8441 4.07001 12.7252 3.98696 12.5557C3.93754 12.4548 3.88842 12.4012 3.82208 12.3838C3.75446 12.366 3.65914 12.3772 3.52403 12.409V12.409ZM3.06339 11.9463C3.04438 11.9104 3.06244 11.853 3.09919 11.8317C3.1601 11.7965 3.23049 11.7653 3.30081 11.7436C3.38164 11.7186 3.46493 11.7052 3.53834 11.7104C3.62817 11.7168 3.7045 11.7497 3.75162 11.8193C3.76233 11.8351 3.77105 11.8519 3.77743 11.8697C3.81336 11.9693 3.84025 12.0573 3.80354 12.1551C3.79816 12.1695 3.79148 12.1836 3.78326 12.1976C3.81555 12.1995 3.8459 12.2041 3.87479 12.2117C4.00262 12.2453 4.08788 12.3293 4.16275 12.4822C4.26367 12.6883 4.31985 12.8393 4.28168 12.9652C4.24054 13.1008 4.10638 13.1844 3.82928 13.2384C3.7936 13.2453 3.73841 13.2202 3.72237 13.1899L3.06339 11.9463ZM4.96455 11.5765L5.31157 12.3833C5.35103 12.4751 5.41919 12.519 5.48452 12.5244C5.5089 12.5264 5.53266 12.5235 5.554 12.516C5.57441 12.5089 5.59331 12.4971 5.60896 12.4812C5.65046 12.4389 5.66589 12.3659 5.62606 12.268L5.29341 11.4507C5.24797 11.3391 5.18205 11.2886 5.1197 11.2818C5.09705 11.2793 5.0741 11.2826 5.05256 11.2908C5.03018 11.2993 5.00931 11.3134 4.99171 11.3319L4.99133 11.332C4.94093 11.3849 4.92008 11.4732 4.96454 11.5766L4.96455 11.5765ZM4.78468 11.6422C4.71011 11.4688 4.75277 11.3127 4.84692 11.2139L4.84655 11.2139C4.88368 11.1749 4.92929 11.1447 4.97943 11.1256C5.03041 11.1062 5.08615 11.0984 5.14271 11.1046C5.27094 11.1188 5.39903 11.2041 5.47404 11.3885L5.80668 12.2057C5.876 12.3761 5.83846 12.5139 5.75237 12.6015C5.71653 12.638 5.67172 12.6655 5.62207 12.6829C5.57336 12.6999 5.52058 12.7068 5.46786 12.7024C5.33568 12.6914 5.20194 12.6123 5.1317 12.449L4.78468 11.6422ZM5.70312 11.1604C5.73561 11.0153 5.81354 10.9195 5.9082 10.8666C5.9695 10.8324 6.03712 10.8166 6.10396 10.8173C6.17067 10.8179 6.23641 10.8348 6.29402 10.8657C6.38542 10.9149 6.45774 10.9993 6.48321 11.1111C6.52232 11.2378 6.51262 11.3422 6.46741 11.4302C6.46169 11.4413 6.45546 11.452 6.44869 11.4625C6.4608 11.4659 6.47275 11.47 6.48456 11.4747C6.58079 11.513 6.65943 11.5915 6.71099 11.7257C6.71104 11.7259 6.71395 11.7339 6.714 11.7341L6.81265 12.1015C6.85259 12.2503 6.79036 12.3608 6.6861 12.429C6.64384 12.4567 6.59534 12.4765 6.54491 12.4881C6.49579 12.4995 6.44364 12.5035 6.39284 12.4999C6.25187 12.4898 6.12148 12.4215 6.08061 12.2901L6.02161 12.1005C6.00825 12.0575 6.00703 11.9867 6.08713 11.9646C6.16722 11.9426 6.19489 12.0084 6.20825 12.0513L6.26725 12.241C6.28264 12.2905 6.34159 12.3169 6.4071 12.3216C6.43708 12.3237 6.46842 12.3212 6.49842 12.3143C6.52715 12.3077 6.55351 12.2972 6.57486 12.2832C6.61718 12.2555 6.64196 12.209 6.62464 12.1445L6.52651 11.779C6.49543 11.7013 6.45466 11.6578 6.4078 11.6392C6.35926 11.6199 6.29691 11.6244 6.22755 11.6436C6.13643 11.6689 6.06867 11.525 6.15141 11.4804C6.21668 11.4453 6.26685 11.4042 6.29286 11.3535C6.31797 11.3047 6.32182 11.2418 6.2964 11.1597C6.29637 11.1595 6.29476 11.1523 6.29472 11.1522C6.28211 11.0916 6.24433 11.0463 6.19656 11.0206C6.16727 11.0049 6.13462 10.9963 6.10216 10.996C6.06979 10.9957 6.03722 11.0032 6.00792 11.0196C5.95642 11.0484 5.91288 11.1054 5.89252 11.1964C5.88272 11.2402 5.83055 11.2793 5.77821 11.266C5.72588 11.2527 5.69332 11.2043 5.70312 11.1604V11.1604ZM2.36507 12.5311L2.36567 12.5321C2.25692 12.3729 2.26216 12.2222 2.32577 12.1176C2.35261 12.0735 2.38993 12.0374 2.43391 12.012C2.479 11.9859 2.53048 11.9708 2.58441 11.9693C2.70447 11.966 2.8363 12.0277 2.93152 12.1822L3.43894 13.0054C3.54398 13.1758 3.5448 13.3221 3.49097 13.4201C3.46668 13.4644 3.43161 13.4992 3.38941 13.5231C3.3474 13.5469 3.2986 13.5594 3.24671 13.5592C3.13423 13.5587 3.0079 13.4968 2.91436 13.3562L2.36507 12.5311ZM2.52887 12.4367L2.52948 12.4377L3.07876 13.2628C3.13316 13.3445 3.19585 13.3805 3.24704 13.3807C3.26248 13.3807 3.27683 13.3771 3.28895 13.3703C3.30094 13.3635 3.31117 13.3531 3.31862 13.3395C3.34609 13.2895 3.33958 13.2049 3.27107 13.0938L2.76366 12.2706C2.70917 12.1822 2.64472 12.1466 2.59032 12.1481C2.57053 12.1486 2.55205 12.1539 2.5363 12.163C2.51946 12.1727 2.50491 12.187 2.49414 12.2047C2.46178 12.2579 2.46338 12.3409 2.52887 12.4367V12.4367ZM1.83543 12.5927L1.66219 12.4153C1.60526 12.357 1.54315 12.3425 1.49139 12.3564C1.46705 12.3629 1.44451 12.3749 1.42542 12.391C1.40488 12.4083 1.38785 12.4301 1.376 12.4548C1.34389 12.5218 1.34968 12.6112 1.4241 12.6961L2.41029 13.8214C2.45452 13.8719 2.51241 13.8862 2.56412 13.8754C2.58821 13.8704 2.61144 13.86 2.63185 13.8454C2.65264 13.8305 2.67015 13.8116 2.68242 13.7897C2.71368 13.7338 2.71198 13.6556 2.64764 13.5692L2.55226 13.4413C2.52482 13.4044 2.52729 13.3577 2.5768 13.3171C2.62631 13.2766 2.68369 13.3035 2.71113 13.3403L2.80651 13.4683C2.9176 13.6174 2.91487 13.7625 2.85358 13.8719C2.82791 13.9178 2.79201 13.9569 2.74988 13.987C2.70738 14.0175 2.65813 14.0392 2.60615 14.0501C2.48771 14.0749 2.35707 14.0442 2.26007 13.9335L1.27388 12.8083C1.14739 12.6639 1.14077 12.5052 1.19942 12.3829C1.22244 12.3348 1.25559 12.2925 1.29557 12.2588C1.33698 12.2238 1.38541 12.1979 1.43751 12.1839C1.55565 12.1523 1.69089 12.1787 1.80537 12.2959L1.97862 12.4733C2.01104 12.5065 2.01848 12.5615 1.97187 12.5994C1.92526 12.6373 1.86785 12.6259 1.83543 12.5927V12.5927ZM9.1375 11.4079C9.17039 11.4016 9.20326 11.4085 9.22962 11.4246C9.25585 11.4406 9.27543 11.4657 9.28219 11.496C9.289 11.5265 9.28176 11.5569 9.26453 11.5811C9.24732 11.6053 9.22015 11.6235 9.18699 11.6298C9.15383 11.6361 9.1211 11.6293 9.09494 11.6134C9.06875 11.5975 9.04912 11.5723 9.0423 11.5417C9.03554 11.5114 9.04278 11.4812 9.06003 11.4569C9.07734 11.4325 9.10458 11.4141 9.1375 11.4079V11.4079Z" fill="#FFEC00"/>
<path fill-rule="evenodd" clip-rule="evenodd" d="M4.17062 11.5916L4.57968 11.9759L4.54122 11.514C4.5375 11.4694 4.56903 11.4181 4.6299 11.4179C4.69077 11.4177 4.72971 11.4556 4.73343 11.5002L4.78944 12.173L5.31045 12.6625C5.34438 12.6944 5.34945 12.7616 5.30971 12.789C5.26997 12.8164 5.20717 12.8198 5.17323 12.7879L4.81241 12.4489L4.8467 12.8608C4.85042 12.9054 4.8189 12.9567 4.75803 12.9569C4.69715 12.9571 4.65821 12.9192 4.65449 12.8746L4.60265 12.2518L4.03341 11.717C3.99947 11.6851 3.99364 11.6351 4.03414 11.5905C4.07465 11.5459 4.13668 11.5597 4.17062 11.5916V11.5916ZM9.61395 11.4408L9.23544 9.48124C9.21934 9.39795 9.35377 9.34411 9.40839 9.41223L10.7625 11.1008C10.7913 11.1368 10.7885 11.1957 10.7424 11.2257C10.6963 11.2556 10.6359 11.2427 10.6071 11.2068L9.49834 9.82423L9.80441 11.4088C9.81292 11.4528 9.7906 11.5027 9.72621 11.5129C9.66181 11.523 9.62247 11.4848 9.61395 11.4408V11.4408ZM10.9444 9.57158L10.5023 9.74611L10.6933 10.1777L10.9486 10.0866C10.9937 10.0705 11.0549 10.0853 11.0736 10.1377C11.0923 10.19 11.0633 10.2371 11.0181 10.2532L10.7665 10.343L11.0211 10.9184L11.4566 10.7773C11.5023 10.7626 11.5534 10.7722 11.5798 10.832C11.6063 10.8917 11.5661 10.931 11.5204 10.9457L10.9983 11.1148C10.9551 11.1288 10.8944 11.1036 10.8771 11.0644L10.2876 9.73217C10.2695 9.69141 10.2955 9.63323 10.3392 9.61598L10.8691 9.40681C10.9136 9.38925 10.9733 9.39857 10.9957 9.45407C11.0182 9.50957 10.9889 9.55402 10.9444 9.57158ZM11.3553 9.31547L11.6424 9.80293L12.0457 9.62989L11.7904 9.19227C11.7674 9.15291 11.7444 9.11353 11.8295 9.07125C11.9147 9.02897 11.9376 9.06834 11.9606 9.10771L12.6908 10.359C12.7138 10.3984 12.7068 10.4477 12.6516 10.4801C12.5965 10.5124 12.5436 10.483 12.5206 10.4436L12.1377 9.78745L11.7351 9.96018L12.1081 10.5934C12.1312 10.6327 12.128 10.677 12.0693 10.7146C12.0107 10.7522 11.9612 10.7179 11.938 10.6786L11.1852 9.40072C11.162 9.36144 11.1389 9.32217 11.2239 9.27954C11.309 9.23691 11.3321 9.27619 11.3553 9.31547ZM12.3443 8.95661L12.6721 9.50589L12.6879 8.72791C12.6895 8.64547 12.8211 8.61287 12.867 8.68341L13.6548 9.89287C13.6797 9.93119 13.7047 9.96952 13.622 10.0156C13.5392 10.0617 13.5143 10.0234 13.4893 9.98507L12.8745 9.04106L12.8613 9.69275C12.8607 9.72315 12.86 9.75353 12.8294 9.76939L13.0646 10.1635C13.088 10.2026 13.0902 10.2501 13.0267 10.2847C12.9633 10.3193 12.9188 10.2884 12.8954 10.2492L12.1751 9.04238C12.1517 9.00321 12.1283 8.96405 12.2129 8.92116C12.2975 8.87828 12.3209 8.91744 12.3443 8.95661ZM13.2574 8.41407L13.5313 8.81338L13.8631 8.55683L13.5925 8.15911C13.5668 8.12125 13.541 8.08338 13.6227 8.03604C13.7044 7.9887 13.7302 8.02657 13.7559 8.06443L14.5514 9.23379C14.5771 9.27166 14.6029 9.30953 14.5212 9.35687C14.4396 9.4042 14.4138 9.36633 14.388 9.32847L13.9669 8.70936L13.6356 8.96548L14.0868 9.62331C14.1127 9.66108 14.1386 9.69885 14.057 9.74652C13.9754 9.79419 13.9495 9.75641 13.9236 9.71864L13.4259 8.993C13.4201 8.98574 13.4155 8.97897 13.4119 8.97261L13.0942 8.50941C13.0683 8.47164 13.0423 8.43386 13.124 8.3862C13.2056 8.33853 13.2315 8.3763 13.2574 8.41407V8.41407ZM15.2083 8.52352L14.9519 8.31763L14.6411 8.60617L14.8133 9.07286C14.829 9.1152 14.8446 9.15754 14.7534 9.18635C14.6621 9.21517 14.6465 9.17283 14.6309 9.13049L14.4452 8.62735C14.4256 8.6045 14.4208 8.58617 14.4242 8.57034L14.0609 7.58596C14.0318 7.50723 14.1476 7.43528 14.2154 7.48976L15.3349 8.38875C15.3715 8.41809 15.408 8.44742 15.3447 8.51481C15.2814 8.58219 15.2448 8.55286 15.2083 8.52352V8.52352ZM14.8058 8.20029L14.3589 7.84139L14.5716 8.41774L14.8058 8.20029ZM7.27789 11.3259L7.36816 11.551L7.47547 11.1947C7.50238 11.1198 7.62577 11.1171 7.65706 11.1904L7.98946 11.9691C8.00722 12.0107 7.99855 12.0573 7.93497 12.0848C7.87139 12.1123 7.8272 12.0757 7.80945 12.0341L7.5622 11.4485L7.46787 11.7819C7.46689 11.7846 7.46593 11.7873 7.46493 11.7901L7.59591 12.1151C7.61279 12.157 7.60325 12.204 7.53937 12.2301C7.47548 12.2561 7.43216 12.2193 7.41528 12.1774L7.09726 11.3882C7.08038 11.3463 7.0828 11.2879 7.14667 11.2618C7.21054 11.2358 7.26102 11.284 7.27789 11.3259V11.3259ZM8.86239 11.7336L8.6299 11.1969L8.57883 11.4874C8.56788 11.5497 8.48656 11.5824 8.42971 11.5472L8.08314 11.3326L8.31151 11.8772C8.32899 11.9189 8.31656 11.9705 8.2564 11.9927C8.19624 12.0149 8.14883 11.9832 8.13134 11.9415L7.79234 11.1332C7.76062 11.0575 7.86315 10.9817 7.93613 11.0269L8.41213 11.3216L8.49482 10.8513C8.50917 10.7697 8.64636 10.7555 8.67972 10.8325L9.04136 11.6674C9.05934 11.7089 9.04649 11.7563 8.98784 11.7836C8.92919 11.8108 8.88037 11.7752 8.86239 11.7336V11.7336ZM3.45797 11.9442L3.59533 12.2034C3.72792 12.2403 3.87661 12.1124 3.816 11.9659C3.77375 11.8637 3.72391 11.8284 3.45797 11.9442ZM3.7042 12.4089L4.04256 13.0474C4.18896 13.0126 4.25926 12.9719 4.27592 12.917C4.29807 12.8439 4.25019 12.7251 4.16713 12.5555C4.11772 12.4546 4.06859 12.401 4.00225 12.3836C3.93464 12.3658 3.83932 12.377 3.7042 12.4089V12.4089ZM3.24356 11.9461C3.22456 11.9102 3.24261 11.8528 3.27937 11.8315C3.34028 11.7963 3.41067 11.7651 3.48099 11.7434C3.56181 11.7185 3.64511 11.705 3.71851 11.7102C3.80835 11.7166 3.88467 11.7495 3.93179 11.8191C3.94251 11.8349 3.95123 11.8518 3.95761 11.8695C3.99354 11.9691 4.02043 12.0572 3.98372 12.1549C3.97833 12.1693 3.97165 12.1834 3.96343 12.1974C3.99573 12.1993 4.02608 12.2039 4.05497 12.2115C4.1828 12.2451 4.26806 12.3292 4.34292 12.482C4.44385 12.6881 4.50003 12.8391 4.46186 12.965C4.42072 13.1006 4.28656 13.1843 4.00946 13.2382C3.97377 13.2451 3.91859 13.22 3.90254 13.1897L3.24356 11.9461ZM5.14473 11.5764L5.49175 12.3832C5.53121 12.4749 5.59936 12.5188 5.66469 12.5242C5.68908 12.5263 5.71284 12.5233 5.73417 12.5158C5.75458 12.5087 5.77348 12.4969 5.78913 12.481C5.83064 12.4387 5.84607 12.3657 5.80623 12.2678L5.47359 11.4506C5.42815 11.3389 5.36223 11.2884 5.29987 11.2816C5.27723 11.2791 5.25427 11.2824 5.23274 11.2906C5.21036 11.2992 5.18949 11.3132 5.17189 11.3317L5.17151 11.3318C5.12111 11.3847 5.10025 11.473 5.14472 11.5764L5.14473 11.5764ZM4.96486 11.642C4.89028 11.4687 4.93295 11.3125 5.0271 11.2137L5.02672 11.2138C5.06387 11.1747 5.10947 11.1445 5.15961 11.1254C5.21059 11.106 5.26633 11.0982 5.32289 11.1044C5.45112 11.1186 5.57921 11.204 5.65422 11.3883L5.98686 12.2055C6.05619 12.3759 6.01864 12.5137 5.93255 12.6014C5.89671 12.6378 5.85191 12.6653 5.80226 12.6827C5.75354 12.6998 5.70077 12.7066 5.64804 12.7022C5.51586 12.6912 5.38213 12.6121 5.31188 12.4488L4.96486 11.642ZM5.88329 11.1603C5.91578 11.0151 5.99372 10.9193 6.08838 10.8664C6.14967 10.8322 6.21729 10.8164 6.28413 10.8171C6.35085 10.8178 6.41659 10.8346 6.4742 10.8656C6.56559 10.9147 6.63792 10.9991 6.66339 11.1109C6.7025 11.2377 6.69279 11.342 6.64758 11.43C6.64186 11.4411 6.63564 11.4518 6.62887 11.4623C6.64098 11.4658 6.65293 11.4698 6.66474 11.4745C6.76097 11.5128 6.83961 11.5913 6.89117 11.7256C6.89122 11.7258 6.89413 11.7337 6.89418 11.7339L6.99283 12.1014C7.03277 12.2501 6.97054 12.3606 6.86628 12.4289C6.82401 12.4565 6.77551 12.4763 6.72508 12.488C6.67597 12.4993 6.62381 12.5033 6.57301 12.4997C6.43205 12.4896 6.30165 12.4213 6.26078 12.2899L6.20179 12.1003C6.18843 12.0573 6.18721 11.9865 6.2673 11.9644C6.3474 11.9424 6.37506 12.0082 6.38843 12.0512L6.44742 12.2408C6.46282 12.2903 6.52177 12.3167 6.58727 12.3214C6.61725 12.3235 6.64859 12.321 6.6786 12.3141C6.70732 12.3075 6.73368 12.2971 6.75504 12.2831C6.79736 12.2554 6.82213 12.2089 6.80482 12.1443L6.70668 11.7788C6.67561 11.7011 6.63484 11.6577 6.58798 11.639C6.53944 11.6197 6.47708 11.6243 6.40773 11.6435C6.3166 11.6687 6.24885 11.5248 6.33158 11.4803C6.39685 11.4451 6.44702 11.404 6.47304 11.3534C6.49815 11.3045 6.50199 11.2416 6.47658 11.1595C6.47655 11.1593 6.47493 11.1521 6.4749 11.152C6.46228 11.0914 6.4245 11.0461 6.37674 11.0205C6.34745 11.0047 6.3148 10.9962 6.28233 10.9958C6.24997 10.9955 6.2174 11.0031 6.18809 11.0194C6.1366 11.0482 6.09306 11.1052 6.0727 11.1962C6.06289 11.24 6.01072 11.2792 5.95839 11.2659C5.90605 11.2526 5.87349 11.2041 5.88329 11.1603V11.1603ZM2.54524 12.5309L2.54585 12.5319C2.43709 12.3727 2.44234 12.222 2.50594 12.1174C2.53279 12.0733 2.57011 12.0372 2.61409 12.0118C2.65918 11.9857 2.71065 11.9706 2.76459 11.9692C2.88465 11.9658 3.01648 12.0275 3.1117 12.182L3.61911 13.0052C3.72416 13.1756 3.72497 13.3219 3.67114 13.42C3.64686 13.4642 3.61178 13.4991 3.56959 13.5229C3.52758 13.5467 3.47878 13.5592 3.42689 13.559C3.31441 13.5585 3.18808 13.4966 3.09453 13.356L2.54524 12.5309ZM2.70905 12.4365L2.70965 12.4375L3.25894 13.2626C3.31334 13.3443 3.37603 13.3803 3.42722 13.3805C3.44266 13.3806 3.457 13.3769 3.46913 13.3701C3.48111 13.3633 3.49134 13.3529 3.4988 13.3393C3.52626 13.2893 3.51976 13.2047 3.45125 13.0936L2.94384 12.2704C2.88935 12.182 2.8249 12.1464 2.7705 12.1479C2.75071 12.1484 2.73223 12.1537 2.71648 12.1628C2.69964 12.1726 2.68509 12.1868 2.67432 12.2045C2.64195 12.2577 2.64355 12.3407 2.70905 12.4365V12.4365ZM2.01561 12.5925L1.84237 12.4151C1.78544 12.3568 1.72332 12.3423 1.67157 12.3562C1.64722 12.3627 1.62469 12.3747 1.60559 12.3908C1.58505 12.4081 1.56802 12.4299 1.55618 12.4546C1.52406 12.5216 1.52986 12.611 1.60428 12.6959L2.59046 13.8212C2.6347 13.8717 2.69259 13.8861 2.74429 13.8752C2.76839 13.8702 2.79162 13.8598 2.81203 13.8452C2.83282 13.8303 2.85032 13.8114 2.8626 13.7895C2.89385 13.7337 2.89216 13.6554 2.82782 13.5691L2.73244 13.4411C2.705 13.4043 2.70746 13.3575 2.75697 13.3169C2.80648 13.2764 2.86386 13.3033 2.89131 13.3401L2.98669 13.4681C3.09777 13.6172 3.09505 13.7624 3.03376 13.8718C3.00809 13.9176 2.97219 13.9567 2.93006 13.9869C2.88756 14.0173 2.83831 14.039 2.78633 14.0499C2.66788 14.0747 2.53724 14.044 2.44025 13.9334L1.45406 12.8081C1.32757 12.6637 1.32095 12.505 1.37959 12.3827C1.40262 12.3347 1.43577 12.2923 1.47575 12.2586C1.51716 12.2237 1.56559 12.1977 1.61768 12.1837C1.73583 12.1521 1.87107 12.1785 1.98555 12.2957L2.1588 12.4731C2.19122 12.5063 2.19866 12.5613 2.15205 12.5992C2.10544 12.6371 2.04803 12.6257 2.01561 12.5925V12.5925ZM9.31767 11.4077C9.35057 11.4014 9.38344 11.4083 9.4098 11.4244C9.43603 11.4404 9.45561 11.4655 9.46237 11.4958C9.46918 11.5263 9.46194 11.5567 9.44471 11.5809C9.4275 11.6051 9.40033 11.6233 9.36716 11.6296C9.334 11.6359 9.30127 11.6292 9.27512 11.6133C9.24892 11.5973 9.22929 11.5721 9.22248 11.5415C9.21572 11.5112 9.22296 11.481 9.2402 11.4567C9.25752 11.4323 9.28475 11.414 9.31767 11.4077V11.4077Z" fill="#D88D00"/>
<path fill-rule="evenodd" clip-rule="evenodd" d="M4.06271 11.5583L4.47178 11.9427L4.43331 11.4807C4.42959 11.4361 4.46112 11.3848 4.52199 11.3846C4.58286 11.3844 4.6218 11.4223 4.62553 11.4669L4.68154 12.1398L5.20254 12.6293C5.23647 12.6612 5.24154 12.7283 5.2018 12.7557C5.16206 12.7831 5.09926 12.7865 5.06533 12.7546L4.7045 12.4156L4.7388 12.8275C4.74252 12.8721 4.71099 12.9235 4.65012 12.9236C4.58924 12.9238 4.5503 12.8859 4.54658 12.8413L4.49474 12.2185L3.9255 11.6837C3.89156 11.6518 3.88573 11.6018 3.92624 11.5572C3.96674 11.5127 4.02878 11.5264 4.06271 11.5583V11.5583ZM9.50605 11.4076L9.12754 9.44797C9.11144 9.36468 9.24587 9.31084 9.30048 9.37896L10.6546 11.0676C10.6834 11.1035 10.6806 11.1625 10.6345 11.1924C10.5884 11.2224 10.528 11.2095 10.4991 11.1736L9.39043 9.79096L9.6965 11.3755C9.70502 11.4196 9.6827 11.4695 9.6183 11.4796C9.55391 11.4897 9.51456 11.4516 9.50605 11.4076V11.4076ZM10.8365 9.53831L10.3944 9.71285L10.5854 10.1444L10.8407 10.0533C10.8858 10.0372 10.947 10.052 10.9657 10.1044C10.9844 10.1567 10.9554 10.2038 10.9102 10.2199L10.6586 10.3098L10.9132 10.8851L11.3487 10.7441C11.3944 10.7293 11.4455 10.739 11.4719 10.7987C11.4984 10.8584 11.4582 10.8977 11.4125 10.9125L10.8904 11.0815C10.8472 11.0955 10.7865 11.0703 10.7692 11.0311L10.1797 9.6989C10.1616 9.65815 10.1876 9.59997 10.2313 9.58271L10.7612 9.37354C10.8057 9.35598 10.8654 9.3653 10.8878 9.4208C10.9103 9.47631 10.881 9.52075 10.8365 9.53831V9.53831ZM11.2473 9.2822L11.5345 9.76966L11.9378 9.59662L11.6825 9.15901C11.6595 9.11964 11.6365 9.08027 11.7216 9.03799C11.8068 8.99571 11.8297 9.03507 11.8527 9.07445L12.5829 10.3258C12.6059 10.3651 12.5989 10.4145 12.5437 10.4468C12.4885 10.4791 12.4357 10.4497 12.4127 10.4103L12.0298 9.75419L11.6272 9.92692L12.0002 10.5601C12.0233 10.5994 12.02 10.6437 11.9614 10.6813C11.9028 10.7189 11.8533 10.6846 11.8301 10.6454L11.0773 9.36746C11.0541 9.32818 11.031 9.2889 11.116 9.24627C11.2011 9.20364 11.2242 9.24293 11.2473 9.2822V9.2822ZM12.2364 8.92334L12.5642 9.47263L12.58 8.69465C12.5816 8.6122 12.7132 8.57961 12.7591 8.65014L13.5469 9.85961C13.5718 9.89792 13.5968 9.93626 13.514 9.98235C13.4313 10.0284 13.4064 9.99012 13.3814 9.9518L12.7666 9.0078L12.7534 9.65949C12.7528 9.68988 12.7521 9.72027 12.7215 9.73612L12.9567 10.1302C12.9801 10.1694 12.9823 10.2168 12.9188 10.2514C12.8554 10.286 12.8109 10.2551 12.7875 10.216L12.0672 9.00911C12.0438 8.96995 12.0204 8.93079 12.105 8.8879C12.1896 8.84501 12.213 8.88417 12.2364 8.92334V8.92334ZM13.1495 8.38081L13.4234 8.78012L13.7552 8.52356L13.4846 8.12585C13.4589 8.08798 13.4331 8.05011 13.5148 8.00277C13.5965 7.95544 13.6223 7.99331 13.648 8.03117L14.4435 9.20053C14.4692 9.23839 14.495 9.27626 14.4133 9.3236C14.3316 9.37094 14.3059 9.33306 14.2801 9.2952L13.859 8.6761L13.5277 8.93222L13.9789 9.59004C14.0048 9.62782 14.0307 9.66559 13.9491 9.71326C13.8675 9.76092 13.8416 9.72315 13.8157 9.68538L13.318 8.95974C13.3122 8.95247 13.3075 8.94571 13.304 8.93935L12.9863 8.47614C12.9604 8.43837 12.9344 8.4006 13.016 8.35293C13.0976 8.30527 13.1236 8.34304 13.1495 8.38081V8.38081ZM15.1004 8.49026L14.844 8.28437L14.5332 8.57291L14.7054 9.0396C14.7211 9.08194 14.7367 9.12428 14.6455 9.15309C14.5542 9.1819 14.5386 9.13956 14.523 9.09723L14.3373 8.59409C14.3177 8.57123 14.3129 8.55291 14.3163 8.53708L13.953 7.55269C13.9239 7.47396 14.0397 7.40202 14.1075 7.45649L15.227 8.35549C15.2636 8.38482 15.3001 8.41415 15.2368 8.48154C15.1735 8.54892 15.1369 8.51959 15.1004 8.49026V8.49026ZM14.6979 8.16703L14.251 7.80813L14.4637 8.38448L14.6979 8.16703ZM7.16998 11.2927L7.26026 11.5177L7.36757 11.1614C7.39448 11.0866 7.51787 11.0838 7.54916 11.1571L7.88155 11.9358C7.89931 11.9774 7.89064 12.0241 7.82706 12.0516C7.76348 12.079 7.7193 12.0425 7.70154 12.0008L7.45429 11.4153L7.35997 11.7487C7.35899 11.7514 7.35802 11.7541 7.35702 11.7568L7.48801 12.0818C7.50488 12.1237 7.49535 12.1707 7.43146 12.1968C7.36758 12.2229 7.32425 12.186 7.30737 12.1441L6.98936 11.3549C6.97248 11.313 6.9749 11.2547 7.03877 11.2286C7.10264 11.2025 7.15311 11.2508 7.16998 11.2927V11.2927ZM8.75449 11.7004L8.522 11.1636L8.47092 11.4541C8.45998 11.5164 8.37865 11.5491 8.3218 11.514L7.97524 11.2994L8.2036 11.8439C8.22109 11.8856 8.20865 11.9373 8.14849 11.9595C8.08833 11.9817 8.04092 11.9499 8.02343 11.9082L7.68443 11.0999C7.65272 11.0242 7.75524 10.9484 7.82822 10.9936L8.30423 11.2883L8.38691 10.8181C8.40127 10.7364 8.53846 10.7222 8.57181 10.7992L8.93346 11.6341C8.95143 11.6757 8.93859 11.7231 8.87994 11.7503C8.82129 11.7776 8.77246 11.7419 8.75449 11.7004V11.7004ZM3.35006 11.911L3.48742 12.1702C3.62001 12.207 3.7687 12.0792 3.70809 11.9326C3.66584 11.8305 3.616 11.7951 3.35006 11.911ZM3.59629 12.3756L3.93465 13.0141C4.08105 12.9794 4.15135 12.9386 4.16801 12.8837C4.19017 12.8107 4.14228 12.6918 4.05922 12.5222C4.00981 12.4213 3.96068 12.3677 3.89435 12.3503C3.82673 12.3326 3.73141 12.3438 3.59629 12.3756V12.3756ZM3.13565 11.9128C3.11665 11.877 3.13471 11.8195 3.17146 11.7983C3.23237 11.763 3.30276 11.7318 3.37308 11.7101C3.4539 11.6852 3.5372 11.6717 3.61061 11.6769C3.70044 11.6834 3.77677 11.7162 3.82388 11.7858C3.8346 11.8017 3.84332 11.8185 3.8497 11.8362C3.88563 11.9358 3.91252 12.0239 3.87581 12.1217C3.87043 12.136 3.86374 12.1502 3.85553 12.1642C3.88782 12.166 3.91817 12.1707 3.94706 12.1783C4.07489 12.2118 4.16015 12.2959 4.23502 12.4488C4.33594 12.6548 4.39212 12.8059 4.35395 12.9318C4.31281 13.0674 4.17865 13.151 3.90155 13.2049C3.86587 13.2119 3.81068 13.1867 3.79463 13.1564L3.13565 11.9128ZM5.03682 11.5431L5.38384 12.3499C5.4233 12.4417 5.49146 12.4855 5.55679 12.491C5.58117 12.493 5.60493 12.49 5.62626 12.4826C5.64668 12.4754 5.66558 12.4636 5.68122 12.4477C5.72273 12.4055 5.73816 12.3325 5.69832 12.2346L5.36568 11.4173C5.32024 11.3056 5.25432 11.2552 5.19196 11.2483C5.16932 11.2458 5.14637 11.2492 5.12483 11.2574C5.10245 11.2659 5.08158 11.2799 5.06398 11.2984L5.0636 11.2985C5.0132 11.3514 4.99234 11.4397 5.03681 11.5431L5.03682 11.5431ZM4.85695 11.6088C4.78238 11.4354 4.82504 11.2793 4.91919 11.1804L4.91882 11.1805C4.95595 11.1415 5.00156 11.1113 5.0517 11.0922C5.10267 11.0727 5.15841 11.0649 5.21498 11.0712C5.34321 11.0853 5.47129 11.1707 5.54631 11.355L5.87895 12.1723C5.94827 12.3426 5.91072 12.4805 5.82464 12.5681C5.7888 12.6045 5.74399 12.632 5.69434 12.6494C5.64562 12.6665 5.59285 12.6733 5.54013 12.669C5.40795 12.6579 5.27421 12.5789 5.20397 12.4155L4.85695 11.6088ZM5.77539 11.127C5.80788 10.9818 5.88581 10.886 5.98047 10.8332C6.04176 10.7989 6.10939 10.7831 6.17623 10.7838C6.24294 10.7845 6.30868 10.8013 6.36629 10.8323C6.45769 10.8814 6.53001 10.9659 6.55548 11.0777C6.59459 11.2044 6.58489 11.3087 6.53968 11.3967C6.53396 11.4078 6.52773 11.4186 6.52096 11.429C6.53307 11.4325 6.54502 11.4365 6.55683 11.4412C6.65306 11.4795 6.7317 11.5581 6.78326 11.6923C6.78331 11.6925 6.78622 11.7005 6.78627 11.7006L6.88492 12.0681C6.92486 12.2168 6.86263 12.3273 6.75837 12.3956C6.7161 12.4233 6.6676 12.443 6.61718 12.4547C6.56806 12.4661 6.51591 12.4701 6.4651 12.4664C6.32414 12.4563 6.19374 12.388 6.15288 12.2566L6.09388 12.067C6.08052 12.024 6.0793 11.9532 6.1594 11.9312C6.23949 11.9091 6.26716 11.9749 6.28052 12.0179L6.33952 12.2075C6.35491 12.257 6.41386 12.2835 6.47937 12.2881C6.50935 12.2903 6.54069 12.2878 6.57069 12.2809C6.59941 12.2742 6.62578 12.2638 6.64713 12.2498C6.68945 12.2221 6.71422 12.1756 6.69691 12.1111L6.59878 11.7455C6.5677 11.6679 6.52694 11.6244 6.48007 11.6057C6.43153 11.5864 6.36918 11.591 6.29982 11.6102C6.2087 11.6354 6.14094 11.4916 6.22367 11.447C6.28895 11.4119 6.33912 11.3707 6.36513 11.3201C6.39024 11.2712 6.39409 11.2083 6.36867 11.1262C6.36864 11.1261 6.36703 11.1189 6.36699 11.1187C6.35438 11.0581 6.3166 11.0129 6.26883 10.9872C6.23954 10.9715 6.20689 10.9629 6.17442 10.9626C6.14206 10.9622 6.10949 10.9698 6.08019 10.9862C6.02869 11.0149 5.98515 11.072 5.96479 11.163C5.95499 11.2068 5.90282 11.2459 5.85048 11.2326C5.79815 11.2193 5.76559 11.1708 5.77539 11.127V11.127ZM2.43733 12.4977L2.43794 12.4986C2.32918 12.3395 2.33443 12.1887 2.39803 12.0841C2.42488 12.04 2.4622 12.004 2.50618 11.9785C2.55127 11.9524 2.60275 11.9374 2.65668 11.9359C2.77674 11.9326 2.90857 11.9942 3.00379 12.1487L3.5112 12.9719C3.61625 13.1423 3.61706 13.2887 3.56323 13.3867C3.53895 13.4309 3.50387 13.4658 3.46168 13.4897C3.41967 13.5134 3.37087 13.526 3.31897 13.5257C3.2065 13.5252 3.08017 13.4633 2.98662 13.3228L2.43733 12.4977ZM2.60114 12.4033L2.60174 12.4042L3.15103 13.2293C3.20543 13.3111 3.26812 13.347 3.31931 13.3472C3.33475 13.3473 3.34909 13.3437 3.36122 13.3368C3.3732 13.33 3.38344 13.3196 3.39088 13.3061C3.41836 13.256 3.41185 13.1715 3.34334 13.0603L2.83593 12.2371C2.78144 12.1487 2.71699 12.1131 2.66259 12.1146C2.6428 12.1152 2.62432 12.1204 2.60857 12.1295C2.59173 12.1393 2.57718 12.1535 2.56641 12.1712C2.53404 12.2244 2.53564 12.3074 2.60114 12.4033V12.4033ZM1.9077 12.5592L1.73445 12.3818C1.67753 12.3235 1.61541 12.3091 1.56366 12.3229C1.53931 12.3294 1.51678 12.3415 1.49768 12.3576C1.47715 12.3749 1.46011 12.3967 1.44826 12.4214C1.41615 12.4884 1.42195 12.5778 1.49637 12.6627L2.48255 13.788C2.52679 13.8384 2.58468 13.8528 2.63638 13.842C2.66048 13.8369 2.68371 13.8266 2.70412 13.8119C2.7249 13.7971 2.74241 13.7781 2.75469 13.7562C2.78595 13.7004 2.78425 13.6221 2.71991 13.5358L2.62453 13.4078C2.59709 13.371 2.59955 13.3242 2.64906 13.2837C2.69857 13.2432 2.75595 13.27 2.7834 13.3069L2.87878 13.4348C2.98986 13.5839 2.98713 13.7291 2.92585 13.8385C2.90018 13.8843 2.86428 13.9234 2.82215 13.9536C2.77964 13.984 2.7304 14.0058 2.67842 14.0167C2.55997 14.0414 2.42933 14.0108 2.33234 13.9001L1.34615 12.7748C1.21966 12.6305 1.21304 12.4718 1.27168 12.3494C1.2947 12.3014 1.32786 12.259 1.36783 12.2253C1.40925 12.1904 1.45768 12.1644 1.50977 12.1505C1.62792 12.1189 1.76315 12.1452 1.87764 12.2625L2.05089 12.4399C2.08331 12.4731 2.09075 12.5281 2.04414 12.566C1.99753 12.6039 1.94012 12.5924 1.9077 12.5592V12.5592ZM9.20977 11.3744C9.24266 11.3681 9.27553 11.375 9.3019 11.3911C9.32812 11.4071 9.3477 11.4322 9.35446 11.4625C9.36128 11.4931 9.35403 11.5234 9.33681 11.5477C9.31959 11.5718 9.29242 11.59 9.25926 11.5963C9.22609 11.6027 9.19337 11.5959 9.16721 11.58C9.14102 11.5641 9.12138 11.5388 9.11457 11.5083C9.10781 11.478 9.11505 11.4477 9.13229 11.4234C9.14962 11.399 9.17685 11.3807 9.20977 11.3744V11.3744Z" fill="#8B1310"/>
<path fill-rule="evenodd" clip-rule="evenodd" d="M2.13317 6.60264C2.13432 6.2999 2.19674 6.16919 2.39143 6.16983C2.57284 6.1704 2.64752 6.30974 2.6467 6.53066C2.64592 6.73932 2.52602 6.85349 2.41541 6.85312L2.234 6.85254L2.23202 7.38029L2.34265 7.38064C2.586 7.38142 2.67848 7.49219 2.67746 7.76627C2.67623 8.09356 2.59624 8.18741 2.39713 8.18678C2.22899 8.18624 2.1276 8.0918 2.12882 7.76453L1.4253 7.76226C1.42247 8.51912 1.95269 8.71378 2.42612 8.7153C3.0323 8.71725 3.44037 8.44376 3.44255 7.86284C3.44453 7.33508 3.21493 7.21161 2.89235 7.10012L2.8835 7.10009C3.20699 6.97021 3.33598 6.78652 3.33735 6.42241C3.3389 6.0092 2.99958 5.64401 2.39341 5.64207C1.84476 5.64031 1.43196 5.99082 1.42966 6.60039L2.13317 6.60264ZM4.63385 5.71472L3.93259 8.64992L4.69363 8.65236L4.79318 8.06354L5.37721 8.06542L5.49004 8.65491L6.24221 8.65732L5.54972 5.71765L4.63385 5.71472ZM4.87036 7.53604L5.07432 6.24388L5.07876 6.2439L5.27742 7.53734L4.87036 7.53604ZM7.78181 5.65935C7.06059 5.65704 6.74507 6.02014 6.74335 6.48242L6.73838 7.80385C6.73619 8.3889 7.05791 8.73016 7.76584 8.73243C8.48264 8.73473 8.79804 8.39551 8.80023 7.81047L8.80519 6.49314C8.80691 6.03493 8.503 5.66167 7.78181 5.65935ZM7.77535 6.19936C7.90367 6.19976 8.04054 6.27385 8.03992 6.44159L8.03434 7.93075C8.03367 8.10667 7.89619 8.19215 7.76787 8.19173C7.63513 8.19128 7.50271 8.10496 7.50338 7.92904L7.50896 6.43988C7.5096 6.27214 7.64261 6.19894 7.77535 6.19936V6.19936Z" fill="#8B1310"/>
<path d="M2.44123 6.19494C2.58164 6.22228 2.64058 6.35413 2.63982 6.55048C2.63904 6.75912 2.51915 6.87327 2.4085 6.87293L2.22716 6.87234L2.22552 7.30151C2.34362 7.30736 2.42235 7.34308 2.46961 7.41599C2.61381 7.45496 2.67143 7.56952 2.6706 7.78608C2.66938 8.11334 2.58941 8.20723 2.39031 8.2066C2.29918 8.20631 2.22767 8.17845 2.18147 8.101C2.06882 8.07934 1.99697 7.99355 1.98127 7.7839L1.41847 7.78207C1.41716 8.13015 1.52863 8.35931 1.69542 8.50545C1.86999 8.60035 2.07764 8.63467 2.27537 8.63531C2.88148 8.63726 3.2896 8.36379 3.29181 7.78286C3.29289 7.48916 3.22222 7.32075 3.10382 7.20986C3.03796 7.17533 2.96454 7.14723 2.88547 7.11988L2.87665 7.11991C2.89588 7.11219 2.91438 7.10428 2.93225 7.09614C2.87371 7.0678 2.80974 7.04367 2.74156 7.02008L2.73274 7.02011C3.05626 6.89021 3.18527 6.7065 3.18659 6.34239C3.18737 6.1321 3.09978 5.93428 2.93374 5.79042C2.78818 5.71033 2.60468 5.66257 2.38658 5.66188C1.86851 5.66025 1.47157 5.97276 1.42703 6.52086L1.98239 6.52264C1.98356 6.21988 2.04597 6.08916 2.2407 6.08984C2.33486 6.09013 2.40023 6.12785 2.44123 6.19494V6.19494ZM3.94947 8.57045L4.54287 8.57234L4.64239 7.98358L5.22648 7.98538L5.24551 8.0848L5.37039 8.08519L5.4642 8.5753L6.0915 8.57731L5.42237 5.73707L4.627 5.73452L3.94947 8.57045ZM4.71957 7.45606L4.92358 6.16386H4.92797L5.00454 6.66242L5.06749 6.26366H5.07187L5.27052 7.55714L4.86348 7.55586L4.87916 7.45657L4.71957 7.45606ZM6.99494 8.5211C7.15296 8.60631 7.35867 8.65158 7.61505 8.65237C8.3319 8.65475 8.64731 8.3155 8.64949 7.73046L8.65445 6.41314C8.65533 6.17944 8.57664 5.96794 8.40371 5.8164C8.24617 5.73046 8.03846 5.68002 7.77493 5.67916C7.05374 5.67684 6.7382 6.03989 6.73645 6.50218L6.73158 7.82362C6.73045 8.12525 6.81536 8.36212 6.99494 8.5211V8.5211ZM7.62453 6.11937C7.71256 6.11966 7.80455 6.15461 7.85348 6.23058C7.95075 6.25708 8.03358 6.33082 8.03302 6.46135L8.02749 7.95055C8.0268 8.12644 7.88937 8.21196 7.76103 8.21152C7.67495 8.21127 7.589 8.1749 7.53938 8.10139C7.43713 8.07367 7.35203 7.99014 7.35259 7.84898L7.35823 6.35988C7.35881 6.19215 7.49182 6.11892 7.62453 6.11937V6.11937Z" fill="url(#paint9_linear)" stroke="#FFEC00" stroke-width="0.216"/>
<path d="M10.0461 6.70728C10.2806 6.98317 10.4419 7.36188 10.5828 7.7693C10.666 7.35257 10.8438 6.98172 11.0691 6.65145C10.7393 6.71996 10.3704 6.68238 10.0461 6.70728Z" fill="url(#paint10_linear)"/>
<path d="M12.6899 4.98406C12.9065 5.32163 13.0805 5.6531 13.2183 6.00573C13.2156 5.5719 13.2639 5.11416 13.3398 4.66546C13.1489 4.79517 12.897 4.92697 12.6899 4.98406V4.98406Z" fill="url(#paint11_linear)"/>
<path d="M2.73022 4.59702C2.82269 4.81366 2.90546 5.03728 2.92155 5.30961C3.09239 5.01686 3.33121 4.73163 3.63807 4.45381C3.3278 4.46724 3.02299 4.5052 2.73022 4.59702Z" fill="url(#paint12_linear)"/>
<path d="M1.65405 9.40259C1.88778 9.38406 2.15609 9.38651 2.50022 9.43523C2.34159 9.72146 2.25227 10.1048 2.2324 10.5851C2.10082 10.1047 1.89446 9.72976 1.65405 9.40259Z" fill="url(#paint13_linear)"/>
<path d="M6.8933 13.7817C6.80993 14.1623 6.83859 14.5214 6.91827 14.8711C6.51598 14.6602 6.21133 14.4112 6.00439 14.124C6.28269 14.0725 6.56697 14.0001 6.8933 13.7817V13.7817Z" fill="url(#paint14_linear)"/>
<path d="M8.29907 14.7336C8.47394 14.8182 8.57388 15.1632 8.67826 15.4929C8.88622 15.1219 9.04292 14.7039 9.14817 14.239C8.90495 14.4675 8.606 14.6068 8.29907 14.7336V14.7336Z" fill="url(#paint15_linear)"/>
<path d="M10.3801 13.0384C10.5474 13.5071 10.5089 13.7409 10.4084 14.1095C10.7631 13.5896 11.0745 13.0589 11.3427 12.5177C11.0469 12.9181 10.7249 12.9264 10.3801 13.0384Z" fill="url(#paint16_linear)"/>
<path d="M10.01 6.54003C10.2445 6.81592 10.4057 7.19464 10.5467 7.60205C10.6299 7.18532 10.8077 6.81447 11.033 6.48421C10.7031 6.55272 10.3343 6.51514 10.01 6.54003Z" fill="url(#paint17_linear)"/>
<path d="M12.6541 4.81682C12.8706 5.15439 13.0446 5.48586 13.1824 5.83848C13.1798 5.40466 13.228 4.94692 13.3039 4.49822C13.113 4.62793 12.8611 4.75973 12.6541 4.81682Z" fill="url(#paint18_linear)"/>
<path d="M2.69409 4.42977C2.78656 4.64642 2.86933 4.87003 2.88542 5.14235C3.05625 4.84962 3.29508 4.56438 3.60195 4.28657C3.29167 4.29999 2.98686 4.33795 2.69409 4.42977V4.42977Z" fill="url(#paint19_linear)"/>
<path d="M1.61792 9.23534C1.85164 9.21681 2.11995 9.21927 2.46409 9.26799C2.30546 9.55422 2.21613 9.93753 2.19626 10.4179C2.06468 9.93749 1.85833 9.56252 1.61792 9.23534V9.23534Z" fill="url(#paint20_linear)"/>
<path d="M6.85716 13.6145C6.77379 13.9951 6.80246 14.3542 6.88214 14.7038C6.47985 14.493 6.17519 14.244 5.96826 13.9567C6.24655 13.9053 6.53084 13.8329 6.85716 13.6145V13.6145Z" fill="url(#paint21_linear)"/>
<path d="M8.26294 14.5663C8.43781 14.651 8.53774 14.996 8.64213 15.3257C8.8501 14.9546 9.00678 14.5367 9.11203 14.0717C8.86882 14.3002 8.56987 14.4396 8.26294 14.5663Z" fill="url(#paint22_linear)"/>
<path d="M10.344 12.8711C10.5113 13.3399 10.4728 13.5737 10.3723 13.9423C10.7269 13.4223 11.0384 12.8917 11.3065 12.3504C11.0107 12.7509 10.6888 12.7592 10.344 12.8711V12.8711Z" fill="url(#paint23_linear)"/>
<path d="M7.81 1.30141C7.53243 1.2729 7.81 1.80047 7.45532 1.95732C7.45532 2.00959 7.45532 2.06188 7.45532 2.11416C7.52729 2.10465 7.59926 2.09514 7.67121 2.08564C7.77916 2.5134 7.53243 2.86987 7.71748 3.36892C7.76887 3.29762 7.91792 3.32137 8.25721 3.44022C7.9642 3.07421 7.91792 2.67021 8.11842 2.22823C8.14411 2.14743 8.16982 2.06662 8.19553 1.98583C8.3446 1.90028 8.51421 1.87176 8.70442 1.90028C8.70442 1.867 8.70442 1.83374 8.70442 1.80047C8.57588 1.7672 8.44738 1.75293 8.31889 1.75769C8.37029 1.55807 8.68385 1.52956 8.79694 1.32994C8.45768 1.33944 8.07216 1.46302 7.81 1.30141Z" fill="url(#paint24_linear)"/>
<defs>
<linearGradient id="paint0_linear" x1="7.41912" y1="7.60018" x2="6.58742" y2="10.7371" gradientUnits="userSpaceOnUse">
<stop stop-color="#FCB900"/>
<stop offset="1" stop-color="#FFEC00"/>
</linearGradient>
<linearGradient id="paint1_linear" x1="-3.93819" y1="-37.2137" x2="-2.06651" y2="-38.7953" gradientUnits="userSpaceOnUse">
<stop stop-color="#FCB900"/>
<stop offset="1" stop-color="#FFEC00"/>
</linearGradient>
<linearGradient id="paint2_linear" x1="-24.5701" y1="8.96715" x2="-26.2893" y2="10.2691" gradientUnits="userSpaceOnUse">
<stop stop-color="#FCB900"/>
<stop offset="1" stop-color="#FFEC00"/>
</linearGradient>
<linearGradient id="paint3_linear" x1="3.01153" y1="-25.8652" x2="15.8622" y2="-35.5967" gradientUnits="userSpaceOnUse">
<stop stop-color="#FCB900"/>
<stop offset="1" stop-color="#FFEC00"/>
</linearGradient>
<linearGradient id="paint4_linear" x1="4.61681" y1="-27.2998" x2="15.4553" y2="-35.5077" gradientUnits="userSpaceOnUse">
<stop stop-color="#B70814"/>
<stop offset="1" stop-color="#E30016"/>
</linearGradient>
<linearGradient id="paint5_linear" x1="-13.8933" y1="2.33125" x2="-17.0813" y2="4.83628" gradientUnits="userSpaceOnUse">
<stop stop-color="#FCB900"/>
<stop offset="1" stop-color="#FFEC00"/>
</linearGradient>
<linearGradient id="paint6_linear" x1="2.30244" y1="-28.7075" x2="5.06219" y2="-30.7974" gradientUnits="userSpaceOnUse">
<stop stop-color="#006828"/>
<stop offset="1" stop-color="#4AAC26"/>
</linearGradient>
<linearGradient id="paint7_linear" x1="-19.3682" y1="-0.799246" x2="-31.1031" y2="4.85133" gradientUnits="userSpaceOnUse">
<stop stop-color="#FCB900"/>
<stop offset="1" stop-color="#FFEC00"/>
</linearGradient>
<linearGradient id="paint8_linear" x1="6.55994" y1="-28.9394" x2="14.2718" y2="-34.7795" gradientUnits="userSpaceOnUse">
<stop stop-color="#FCB900"/>
<stop offset="1" stop-color="#FFEC00"/>
</linearGradient>
<linearGradient id="paint9_linear" x1="4.5986" y1="-30.5549" x2="6.91388" y2="-32.656" gradientUnits="userSpaceOnUse">
<stop stop-color="#FCB900"/>
<stop offset="1" stop-color="#FFEC00"/>
</linearGradient>
<linearGradient id="paint10_linear" x1="2.29428" y1="-36.4868" x2="3.23225" y2="-37.1971" gradientUnits="userSpaceOnUse">
<stop stop-color="#FCB900"/>
<stop offset="1" stop-color="#FFEC00"/>
</linearGradient>
<linearGradient id="paint11_linear" x1="-0.981494" y1="-37.3503" x2="0.143097" y2="-38.2019" gradientUnits="userSpaceOnUse">
<stop stop-color="#FCB900"/>
<stop offset="1" stop-color="#FFEC00"/>
</linearGradient>
<linearGradient id="paint12_linear" x1="4.54377" y1="-29.6851" x2="5.26186" y2="-30.2289" gradientUnits="userSpaceOnUse">
<stop stop-color="#FCB900"/>
<stop offset="1" stop-color="#FFEC00"/>
</linearGradient>
<linearGradient id="paint13_linear" x1="9.53561" y1="-31.7024" x2="10.5368" y2="-32.4606" gradientUnits="userSpaceOnUse">
<stop stop-color="#FCB900"/>
<stop offset="1" stop-color="#FFEC00"/>
</linearGradient>
<linearGradient id="paint14_linear" x1="10.9295" y1="-37.5154" x2="11.8435" y2="-38.2076" gradientUnits="userSpaceOnUse">
<stop stop-color="#FCB900"/>
<stop offset="1" stop-color="#FFEC00"/>
</linearGradient>
<linearGradient id="paint15_linear" x1="10.0185" y1="-39.5155" x2="11.0706" y2="-40.3123" gradientUnits="userSpaceOnUse">
<stop stop-color="#FCB900"/>
<stop offset="1" stop-color="#FFEC00"/>
</linearGradient>
<linearGradient id="paint16_linear" x1="7.29975" y1="-40.1043" x2="8.63549" y2="-41.1158" gradientUnits="userSpaceOnUse">
<stop stop-color="#FCB900"/>
<stop offset="1" stop-color="#FFEC00"/>
</linearGradient>
<linearGradient id="paint17_linear" x1="-19.576" y1="7.96877" x2="-20.6709" y2="8.44719" gradientUnits="userSpaceOnUse">
<stop stop-color="#FCB900"/>
<stop offset="1" stop-color="#FFEC00"/>
</linearGradient>
<linearGradient id="paint18_linear" x1="-16.5939" y1="9.49141" x2="-17.9067" y2="10.065" gradientUnits="userSpaceOnUse">
<stop stop-color="#FCB900"/>
<stop offset="1" stop-color="#FFEC00"/>
</linearGradient>
<linearGradient id="paint19_linear" x1="-20.1127" y1="0.87345" x2="-20.9509" y2="1.23971" gradientUnits="userSpaceOnUse">
<stop stop-color="#FCB900"/>
<stop offset="1" stop-color="#FFEC00"/>
</linearGradient>
<linearGradient id="paint20_linear" x1="-25.4677" y1="1.80077" x2="-26.6364" y2="2.31142" gradientUnits="userSpaceOnUse">
<stop stop-color="#FCB900"/>
<stop offset="1" stop-color="#FFEC00"/>
</linearGradient>
<linearGradient id="paint21_linear" x1="-28.24" y1="7.17477" x2="-29.307" y2="7.64096" gradientUnits="userSpaceOnUse">
<stop stop-color="#FCB900"/>
<stop offset="1" stop-color="#FFEC00"/>
</linearGradient>
<linearGradient id="paint22_linear" x1="-27.8388" y1="9.31324" x2="-29.0669" y2="9.8499" gradientUnits="userSpaceOnUse">
<stop stop-color="#FCB900"/>
<stop offset="1" stop-color="#FFEC00"/>
</linearGradient>
<linearGradient id="paint23_linear" x1="-25.3331" y1="10.4526" x2="-26.8923" y2="11.1339" gradientUnits="userSpaceOnUse">
<stop stop-color="#FCB900"/>
<stop offset="1" stop-color="#FFEC00"/>
</linearGradient>
<linearGradient id="paint24_linear" x1="6.33983" y1="2.13147" x2="6.20171" y2="4.26768" gradientUnits="userSpaceOnUse">
<stop stop-color="#FCB900"/>
<stop offset="1" stop-color="#FFEC00"/>
</linearGradient>
</defs>
</svg>
